<?xml version="1.0" encoding="UTF-8"?>
<!DOCTYPE svg PUBLIC "-//W3C//DTD SVG 1.1//EN" "http://www.w3.org/Graphics/SVG/1.1/DTD/svg11.dtd">
<!-- Creator: CorelDRAW 2019 (64 Bit) -->
<svg xmlns="http://www.w3.org/2000/svg" xml:space="preserve" width="224px" height="185px" version="1.1" style="shape-rendering:geometricPrecision; text-rendering:geometricPrecision; image-rendering:optimizeQuality; fill-rule:evenodd; clip-rule:evenodd"
viewBox="0 0 21.25 17.57"
 xmlns:xlink="http://www.w3.org/1999/xlink"
 xmlns:xodm="http://www.corel.com/coreldraw/odm/2003">
 <defs>
  <style type="text/css">
   <![CDATA[
    .fil0 {fill:#FEFEFE}
    .fil1 {fill:#0098DA}
   ]]>
  </style>
 </defs>
 <g id="Camada_x0020_1">
  <metadata id="CorelCorpID_0Corel-Layer"/>
  <g id="_2898779967088">
   <path class="fil0" d="M10.12 16.93c0.14,0.25 0.32,0.47 0.49,0.63l0 0 0.01 0c0.17,-0.16 0.34,-0.38 0.49,-0.63 0.33,-0.46 0.78,-1.07 1.95,-2.05 1.77,-1.49 3.89,-2.63 5.52,-3.96 0.66,-0.4 1.32,-1.12 1.8,-1.92 0.26,-0.42 0.47,-0.86 0.6,-1.34 0.04,-0.14 0.07,-0.27 0.1,-0.41 0.08,-0.43 0.12,-0.86 0.11,-1.28 0.02,-1.86 -0.71,-3.4 -1.85,-4.44 -1.14,-1.06 -2.73,-1.63 -4.55,-1.35 -0.49,0.07 -0.99,0.2 -1.48,0.39 -0.9,0.36 -1.65,0.92 -2.19,1.68 -0.19,0.27 -0.28,0.58 -0.51,0.85 -0.22,-0.27 -0.31,-0.58 -0.5,-0.85 -0.54,-0.76 -1.29,-1.32 -2.19,-1.68 -0.49,-0.19 -0.99,-0.32 -1.48,-0.39 -1.82,-0.28 -3.41,0.29 -4.55,1.35 -1.14,1.04 -1.87,2.58 -1.86,4.44 0,0.42 0.04,0.85 0.12,1.28 0.03,0.14 0.06,0.27 0.1,0.41 0.13,0.48 0.34,0.92 0.6,1.34 0.48,0.8 1.14,1.52 1.8,1.92 1.63,1.33 3.75,2.47 5.52,3.96 1.17,0.98 1.62,1.59 1.95,2.05z"/>
   <path class="fil1" d="M10.13 16.93c0.14,0.26 0.32,0.47 0.49,0.64l0 -0.01 0.01 0.01c0.17,-0.17 0.35,-0.38 0.49,-0.64 0.76,-1.05 1.8,-1.81 2.59,-2.81 0.32,-0.38 0.65,-1.08 0.66,-2.64 -4.6,0.6 -3.53,0.47 -4.68,-1.1 -0.38,-0.53 -0.61,-0.68 -0.49,-1.43 0.29,-0.18 1.04,-0.45 1.43,-0.64 2.43,-1.16 1.28,-0.56 2.31,-1.81 0.33,-0.41 0.76,-0.55 0.98,-0.86 -0.2,-0.73 -0.23,-1.81 0.07,-2.51 0.43,0.16 0.82,0.54 1.15,0.91 0.38,0.42 0.48,0.63 0.95,1.02 -0.05,-0.86 -0.18,-2.36 0.26,-3.05 0.67,0.39 1.78,2.07 2.19,3.06 0.33,0.78 0.21,1.3 0.61,2.04 0.44,0.8 0.75,1.56 1,2.26l0 0.01c0.1,-0.15 0.19,-0.28 0.28,-0.43 0.26,-0.42 0.47,-0.86 0.6,-1.35 0.04,-0.14 0.07,-0.27 0.1,-0.41 0.08,-0.43 0.12,-0.87 0.12,-1.29 0.01,-1.87 -0.72,-3.43 -1.87,-4.46 -1.14,-1.08 -2.73,-1.65 -4.56,-1.37 -0.5,0.07 -0.99,0.2 -1.49,0.39 -0.91,0.37 -1.65,0.93 -2.2,1.7 -0.19,0.26 -0.28,0.58 -0.51,0.85 -0.22,-0.27 -0.31,-0.59 -0.5,-0.85 -0.55,-0.77 -1.29,-1.33 -2.2,-1.7 -0.5,-0.19 -0.99,-0.32 -1.49,-0.39 -1.83,-0.28 -3.42,0.29 -4.56,1.37 -1.16,1.04 -1.89,2.59 -1.87,4.46 0,0.42 0.04,0.86 0.12,1.29 0.02,0.14 0.06,0.27 0.1,0.41 0.1,0.38 0.25,0.74 0.44,1.07 0.7,-0.21 1.31,-0.52 1.8,-0.94 0.71,-0.6 0.81,-1.09 1.16,-1.83 0.56,-1.15 0.93,-1.16 1.19,-1.81 0.1,-0.28 0.11,-0.27 0.08,-0.6 -0.04,-0.55 0.14,-1.05 0.24,-1.48 0.03,-0.17 0,-0.17 0.12,-0.23 0.28,0.27 0.41,1.13 0.63,1.53 0.4,-0.09 0.4,-0.15 0.49,-0.46 0.08,-0.27 0.13,-0.5 0.3,-0.56 0.23,0.18 0.06,0.67 0.16,0.97 0.63,0.29 1.18,0.17 1.75,0.67 0.29,0.27 0.34,0.43 0.74,0.55 0.31,0.08 0.65,0.15 0.77,0.48 0.09,0.25 0,0.84 -0.07,1.07 -0.25,0.85 -0.91,0.88 -1.55,1.17 -0.31,0.13 -0.51,0.41 -0.58,0.69 -0.09,0.31 -0.11,0.65 -0.19,0.99 -0.07,0.32 -0.17,0.6 -0.25,0.92 -0.44,1.75 -1.02,3.67 0.33,4.75 -0.02,-0.02 -0.04,-0.03 -0.05,-0.04 0.15,0.12 0.29,0.24 0.44,0.36 1.17,0.99 1.62,1.6 1.96,2.06l0 0zm-2.24 -12.08c0.19,0.01 0.39,0.2 0.55,0.15 0.03,-0.19 0.02,-0.27 -0.07,-0.44 -0.07,-0.16 -0.14,-0.24 -0.27,-0.28 -0.17,0.09 -0.21,0.37 -0.21,0.57zm8.13 1.87c-0.16,0.29 -0.25,0.36 -0.56,0.52 -0.26,0.14 -0.42,0.19 -0.65,0.12 -0.11,-0.23 0.65,-1.43 1.21,-0.64l0 0z"/>
  </g>
 </g>
</svg>
