<?xml version="1.0" encoding="UTF-8"?>
<!DOCTYPE svg PUBLIC "-//W3C//DTD SVG 1.1//EN" "http://www.w3.org/Graphics/SVG/1.1/DTD/svg11.dtd">
<!-- Creator: CorelDRAW 2019 (64 Bit) -->
<svg xmlns="http://www.w3.org/2000/svg" xml:space="preserve" width="674px" height="698px" version="1.1" style="shape-rendering:geometricPrecision; text-rendering:geometricPrecision; image-rendering:optimizeQuality; fill-rule:evenodd; clip-rule:evenodd"
viewBox="0 0 851.77 882.69"
 xmlns:xlink="http://www.w3.org/1999/xlink"
 xmlns:xodm="http://www.corel.com/coreldraw/odm/2003">
 <defs>
  <style type="text/css">
   <![CDATA[
    .fil5 {fill:#54341C;fill-rule:nonzero}
    .fil8 {fill:#5E72A3;fill-rule:nonzero}
    .fil7 {fill:#7E99DA;fill-rule:nonzero}
    .fil0 {fill:#E47B18;fill-rule:nonzero}
    .fil11 {fill:#E89A49;fill-rule:nonzero}
    .fil12 {fill:#EF9E97;fill-rule:nonzero}
    .fil1 {fill:#F4AF4D;fill-rule:nonzero}
    .fil9 {fill:#FFA8A5;fill-rule:nonzero}
    .fil2 {fill:#FFC16D;fill-rule:nonzero}
    .fil4 {fill:#FFD4BC;fill-rule:nonzero}
    .fil10 {fill:#FFE2D0;fill-rule:nonzero}
    .fil13 {fill:#FFA8A5;fill-rule:nonzero;fill-opacity:0.400000}
    .fil6 {fill:#FFA8A5;fill-rule:nonzero;fill-opacity:0.600000}
    .fil3 {fill:#F4AF4D;fill-rule:nonzero;fill-opacity:0.701961}
   ]]>
  </style>
 </defs>
 <g id="Camada_x0020_1">
  <metadata id="CorelCorpID_0Corel-Layer"/>
  <g id="_2284806762112">
   <path class="fil0" d="M450.33 291.12c-24.92,41.98 -78.71,108.88 -43.29,196.78 0,0 -116.75,41.97 -157.42,-40.67l-5.25 -95.77 205.96 -60.34z"/>
   <g>
    <path class="fil1" d="M449.97 829.82c11.26,-27.19 29.29,-74.34 16.41,-129.36 8.43,-1.1 16.71,-3.49 24.85,-6.29 13.21,-1.66 26.44,-3.15 39.58,-5.18 0.56,14.93 0.04,29.12 -1.56,42.21 -5.65,46 -20.68,86.31 -46.77,120.81 -14.08,18.61 -44.17,5.96 -32.51,-22.19z"/>
    <path class="fil1" d="M684.84 849.29c0.15,-29.43 1.8,-79.88 34.99,-125.61 -7.35,-4.28 -14.06,-9.7 -20.48,-15.43 -11.53,-6.64 -23.15,-13.15 -34.48,-20.1 -6.3,13.54 -11.32,26.82 -14.91,39.52 -12.62,44.59 -14.37,87.58 -3.68,129.49 5.76,22.61 38.41,22.61 38.56,-7.87z"/>
    <path class="fil2" d="M534.68 621.86l2.94 5.73c11.7,22.75 35.14,37.05 60.72,37.05l86.07 0c15.37,0 30.23,5.55 41.84,15.63 17.55,15.24 25.42,38.82 20.55,61.55 -6.07,28.36 -31.26,48.53 -60.26,48.26l-146.99 -1.37c-37.46,-0.35 -69.26,-27.55 -75.42,-64.5l-7.69 -46.12 78.24 -56.23z"/>
    <path class="fil3" d="M473.7 750.6c-4.67,-7.95 -7.98,-16.84 -9.57,-26.39l-7.69 -46.12 78.24 -56.23 2.94 5.73c4.88,9.49 11.82,17.48 20.09,23.6 -1.93,11.61 -6.74,50.12 -84.01,99.41z"/>
    <path class="fil2" d="M733.07 848.37c-5.97,-28.82 -14.86,-78.51 8.09,-130.14 -8.08,-2.66 -15.77,-6.56 -23.23,-10.83 -12.67,-4.1 -25.39,-8.04 -37.92,-12.49 -3.34,14.55 -5.49,28.59 -6.36,41.76 -3.07,46.24 4.16,88.65 23.34,127.42 10.34,20.91 42.27,14.12 36.08,-15.72z"/>
   </g>
   <g>
    <path class="fil4" d="M347.88 751.92c7.05,-19.7 12.71,-39.96 17.82,-60.05 18.65,1.36 37.47,7.31 55.77,19.25 57.01,37.19 23.51,118.71 23.51,118.71 0,0 57.81,7.7 59.31,27.75 1.51,20.04 -75.4,35.55 -106.96,16.37 -31.56,-19.18 4.51,-75.63 -2.49,-104.07 -3.59,-14.58 -24.53,-20.65 -46.96,-17.96z"/>
    <path class="fil5" d="M451.04 848.4c-18.5,15.63 -45.12,6.07 -66.63,-6.87 -1.05,13.62 1.49,25.47 12.92,32.42 31.56,19.18 108.47,3.67 106.96,-16.37 -1.14,-15.18 -34.54,-23.28 -50.7,-26.32 3.66,5.01 2.36,12.99 -2.55,17.14z"/>
   </g>
   <g>
    <path class="fil4" d="M139.53 692.05c31.08,30.9 15.27,102.19 -14,101.33 -29.27,-0.87 -74.01,-50.73 -100.93,-25.46 -26.92,25.28 -32.57,103.53 -12.85,107.44 19.71,3.92 42.61,-49.71 42.61,-49.71 0,0 69.57,54.09 120.66,9.12 51.09,-44.98 47.78,-110.17 23.6,-165.14l-59.09 22.42z"/>
    <path class="fil4" d="M139.53 692.05c31.08,30.9 15.27,102.19 -14,101.33 -29.27,-0.87 -74.01,-50.73 -100.93,-25.46 -26.92,25.28 -32.57,103.53 -12.85,107.44 19.71,3.92 42.61,-49.71 42.61,-49.71 0,0 69.57,54.09 120.66,9.12 51.09,-44.98 47.78,-110.17 23.6,-165.14l-59.09 22.42z"/>
    <path class="fil6" d="M156.45 739.34c19.54,3.58 40.18,5.15 58.88,-2.15 -1.04,-22.87 -7.22,-46 -16.71,-67.56l-59.09 22.42c11.98,11.91 16.96,29.82 16.92,47.29z"/>
    <path class="fil5" d="M34.84 826.51c-10.11,-22.01 6.23,-45.1 24.46,-62.35 -12.85,-4.67 -24.95,-5.39 -34.7,3.76 -26.92,25.28 -32.57,103.53 -12.85,107.44 14.93,2.97 31.67,-27.05 38.92,-41.8 -5.8,2.18 -13.15,-1.2 -15.83,-7.05z"/>
   </g>
   <path class="fil2" d="M489.91 763.38c18.47,5.63 38.51,-0.05 55.55,-10.99 2.47,41.14 -3.68,79.48 -19.76,115.17 -9.58,21.27 -41.74,15.64 -36.63,-14.41 3.62,-21.28 8.35,-53.87 0.84,-89.77z"/>
   <path class="fil2" d="M722.2 726.6c0,0 0.37,-0.04 1.08,-0.11 0.36,-0.03 0.8,-0.08 1.33,-0.13 0.53,-0.06 0.88,-0.07 2.68,-0.34 1.5,-0.22 3.17,-0.51 4.99,-0.88 1.79,-0.39 3.1,-0.84 4.86,-1.35 3.34,-1.05 7.03,-2.55 10.81,-4.6 7.65,-4.04 15.43,-10.38 22.14,-18.82 3.29,-4.26 6.34,-9.04 8.93,-14.39 1.3,-2.67 2.45,-5.51 3.5,-8.46 0.47,-1.51 0.93,-3.04 1.41,-4.59l0.17 -0.58 0.29 -1.11 0.18 -0.8 0.36 -1.62 0.44 -2.14 0.48 -2.61c0.36,-1.85 0.45,-3.16 0.67,-4.77 0.35,-3.09 0.54,-6.2 0.6,-9.31 0.11,-6.22 -0.34,-12.42 -1.19,-18.5 -1.69,-12.11 -5.05,-23.89 -8.6,-34.82 -3.53,-10.94 -7.21,-21.26 -9.61,-31.06 -1.22,-4.9 -2.12,-9.67 -2.58,-14.28 -0.46,-4.53 -0.45,-8.8 0.05,-13.14 0.94,-8.57 3.93,-15.9 8.36,-20.65l0.41 -0.46 0.1 -0.12 0.05 -0.06c-1.8,1.54 -0.44,0.38 -0.82,0.69l0.42 -0.35 1.65 -1.41c0.5,-0.42 1.22,-1.07 1.54,-1.29 0.18,-0.07 0.35,-0.16 0.51,-0.26 0.16,-0.11 0.31,-0.24 0.46,-0.39 0.25,-0.16 0.67,-0.34 0.99,-0.52 0.69,-0.36 1.34,-0.81 2.14,-1.04 2.97,-1.26 6.41,-2.09 9.96,-2.14 7.05,-0.16 14.28,1.94 19.06,5.64 1.32,0.81 2.27,1.91 3.32,2.88 0.45,0.54 0.91,1.07 1.39,1.58l0.09 0.09c-0.22,-0.35 0.57,0.87 -0.48,-0.78l0.06 0.09 0.24 0.39 0.49 0.76 0.98 1.51c0.27,0.44 0.77,1.15 0.84,1.37l0.27 0.64c0.18,0.51 0.46,0.61 0.69,1.41 0.51,1.33 1.04,2.65 1.32,4.07 1.52,5.57 0.98,11.51 -0.2,16.4 -1.23,4.96 -3.34,8.94 -5.41,11.78 -0.94,1.54 -2.12,2.53 -2.96,3.61 -1.01,0.85 -1.78,1.71 -2.51,2.26 -1.47,1.03 -2.23,1.65 -2.23,1.65l-2.1 1.7c-6.02,4.88 -6.95,13.7 -2.07,19.72 4.5,5.55 12.36,6.76 18.27,3.09 0,0 1.7,-1.05 4.87,-3.01 1.55,-1.03 3.3,-2.51 5.4,-4.19 1.88,-1.86 4.27,-3.89 6.34,-6.58 4.38,-5.21 8.76,-12.26 11.69,-21.12 2.83,-8.84 4.63,-19.54 2.55,-31.43 -0.43,-2.97 -1.25,-5.97 -2.21,-9.01 -0.37,-1.44 -1.29,-3.37 -1.99,-5.03l-1.18 -2.59c-0.41,-0.86 -0.61,-1.13 -0.93,-1.73l-0.87 -1.58 -0.44 -0.79 -0.22 -0.4 -0.05 -0.1 -0.63 -0.97 -0.19 -0.26c-1.03,-1.4 -2.06,-2.81 -3.11,-4.23 -2.25,-2.65 -4.63,-5.38 -7.4,-7.6 -10.81,-9.42 -24.97,-14.69 -40.01,-15.49 -7.54,-0.39 -15.42,0.62 -23.19,3.17 -1.96,0.55 -3.86,1.41 -5.77,2.25 -0.97,0.44 -1.88,0.81 -2.9,1.33l-3.23 1.88 -3.17 2c-0.88,0.59 -1.24,0.91 -1.89,1.38l-1.74 1.3 -0.44 0.33 -1.17 0.99 -0.29 0.27 -1.15 1.06c-12.45,11.49 -19.18,27.11 -21.87,41.76 -1.41,7.34 -1.92,14.95 -1.68,22.18 0.22,7.16 1.07,14.02 2.23,20.51 2.3,13.01 5.64,24.54 8.22,34.91 2.62,10.34 4.43,19.45 4.99,27.56 0.28,4.02 0.26,7.73 -0.05,11.06 -0.15,1.67 -0.37,3.24 -0.66,4.72 -0.15,0.67 -0.28,1.63 -0.43,1.99l-0.19 0.71 -0.08 0.35 -0.22 0.76 -0.46 1.59 -0.24 0.79 -0.05 0.19c0.07,-0.26 -0.21,0.74 0.15,-0.57l-0.02 0.05 -0.08 0.19 -0.62 1.53c-0.48,1 -0.96,1.98 -1.51,2.9 -1.11,1.85 -2.35,3.46 -3.58,4.82 -2.55,2.61 -4.9,4.1 -6.52,4.66 -0.81,0.33 -1.46,0.49 -1.97,0.56 -0.19,-0.01 -0.64,0.15 -0.52,0.07 0.13,-0.09 0.28,-0.11 0.41,-0.1 0.44,0.02 -0.43,0.05 -0.95,0.07 -0.53,0.01 -0.97,0.03 -1.33,0.04 -0.72,0.02 -1.09,0.04 -1.09,0.04 -14.77,0.5 -26.33,12.89 -25.82,27.66 0.51,14.77 12.89,26.33 27.66,25.82 0.57,-0.02 1.22,-0.06 1.78,-0.12z"/>
   <g>
    <path class="fil7" d="M59.53 423.86c18.12,-40.57 59.05,-73.78 102.33,-94.14l89.23 61.11c0,0 -7.34,97.79 36.67,160.13 59.22,83.91 134.72,96.05 134.72,96.05l0.68 0.72c-17.11,8.28 -22.94,35.25 -22.94,35.25 -33.01,172.35 -243.43,116.5 -256.7,106.34 -167.96,-128.57 -126.23,-293.82 -83.99,-365.46z"/>
    <path class="fil8" d="M353.8 665.52c0,0 -1.3,0.25 -3.72,0.72 -2.42,0.46 -6.01,0.94 -10.55,1.6 -9.09,1.28 -22.17,2.31 -37.79,2.16 -7.8,-0.05 -16.23,-0.56 -25.08,-1.51 -8.86,-0.83 -18.06,-2.7 -27.48,-4.72 -9.38,-2.32 -18.9,-5.28 -28.25,-9.06 -4.7,-1.83 -9.28,-4.05 -13.88,-6.24 -4.44,-2.49 -9.08,-4.69 -13.31,-7.58l-6.51 -4.06 -6.2 -4.5c-4.23,-2.85 -7.95,-6.34 -11.84,-9.54 -3.85,-3.26 -7.24,-6.97 -10.89,-10.32 -3.44,-3.56 -6.61,-7.31 -9.86,-10.87 -2.97,-3.81 -5.9,-7.56 -8.76,-11.22 -2.79,-3.73 -5.21,-7.61 -7.75,-11.27 -2.63,-3.6 -4.53,-7.52 -6.74,-11.09 -2.16,-3.61 -4.26,-7.09 -5.93,-10.63 -3.53,-6.96 -6.87,-13.33 -9.31,-19.23 -2.62,-5.82 -4.92,-10.91 -6.4,-15.26 -3.26,-8.59 -5.26,-13.5 -5.26,-13.5 0,0 1.16,5.13 3.45,14.1 1.03,4.52 2.8,9.84 4.81,15.98 1.05,3.05 1.95,6.39 3.3,9.76 1.38,3.36 2.83,6.89 4.35,10.57 1.43,3.74 3.3,7.45 5.23,11.31 1.99,3.82 3.79,7.93 6.27,11.8 2.4,3.91 4.7,8.05 7.38,12.08 2.78,3.95 5.64,7.99 8.67,12.02 3.26,3.83 6.45,7.86 9.94,11.71 3.67,3.67 7.17,7.64 11.21,11.09 4.06,3.43 7.94,7.14 12.38,10.21l6.49 4.82 6.84 4.36c4.51,2.99 9.43,5.28 14.16,7.85 4.87,2.26 9.73,4.55 14.7,6.43 9.88,3.94 20.03,6.51 29.86,8.67 9.9,1.89 19.55,3.2 28.74,3.58 9.17,0.56 17.86,0.41 25.83,-0.15 15.96,-0.96 28.99,-3.78 37.98,-5.89 4.51,-1.07 7.97,-2.19 10.33,-2.95 2.34,-0.8 3.59,-1.23 3.59,-1.23z"/>
    <path class="fil8" d="M322.69 619.49c0,0 -2.45,-1.22 -6.53,-3.63 -2.07,-1.11 -4.47,-2.73 -7.29,-4.36 -2.72,-1.82 -5.85,-3.74 -9.12,-6.05 -3.28,-2.3 -6.78,-4.82 -10.33,-7.66 -3.69,-2.66 -7.11,-6.04 -10.9,-9.18 -3.58,-3.37 -7.19,-6.96 -10.68,-10.72 -3.33,-3.9 -6.97,-7.67 -9.78,-12.06l-4.62 -6.27c-1.3,-2.24 -2.59,-4.46 -3.88,-6.67 -2.77,-4.32 -4.71,-8.96 -6.76,-13.41 -2.27,-4.36 -3.37,-8.99 -4.92,-13.23 -1.64,-4.24 -2.47,-8.43 -3.3,-12.32 -0.43,-1.95 -0.85,-3.82 -1.24,-5.59 -0.45,-1.78 -0.87,-3.47 -0.96,-5.09 -0.39,-3.25 -0.73,-6.09 -1,-8.42 -0.63,-4.7 -1.07,-7.43 -1.07,-7.43 0,0 -0.38,2.67 -0.88,7.44 -0.24,2.38 -0.55,5.29 -0.79,8.64 -0.37,3.36 0.19,7.12 0.39,11.27 0.15,2.08 0.3,4.25 0.46,6.49 0.12,2.26 0.88,4.48 1.32,6.83 1.15,4.63 1.79,9.76 3.98,14.55 1.94,4.87 3.54,10.14 6.51,14.83 1.34,2.42 2.7,4.86 4.06,7.31 1.55,2.32 3.21,4.58 4.83,6.88 3.16,4.66 7.13,8.64 10.8,12.74 1.76,2.13 3.96,3.79 5.94,5.61 2.04,1.74 3.93,3.62 6.03,5.17 4.16,3.14 8.16,6.2 12.29,8.59 2.04,1.22 3.95,2.53 5.92,3.57 1.99,1.02 3.91,2.01 5.75,2.95 3.66,1.92 7.22,3.27 10.29,4.56 3.15,1.17 5.87,2.17 8.19,2.81 2.28,0.73 4.13,1.13 5.38,1.43 1.25,0.27 1.91,0.42 1.91,0.42z"/>
   </g>
   <g>
    <path class="fil2" d="M550.64 554.3c22.29,-9 61.7,1.15 90.62,43.85 0,0 -30.02,81.91 -96.63,53.68l6.01 -97.53z"/>
    <path class="fil9" d="M561.73 571.38c0,0 25.52,-8.97 55.32,28.09 0,0 -21.49,43.3 -58.47,32.36 0,0 7.68,-34.59 3.15,-60.45z"/>
    <path class="fil2" d="M483.23 485.25c9.54,-22.07 0.34,-61.7 -41.65,-91.65 0,0 -82.61,28.04 -56,95.31l97.65 -3.66z"/>
    <path class="fil9" d="M466.43 473.75c0,0 9.58,-25.29 -26.75,-55.97 0,0 -43.81,20.44 -33.77,57.66 0,0 34.77,-6.84 60.52,-1.69z"/>
    <path class="fil2" d="M406.53 712.85l-42.11 -42.87 -42.11 -42.87c-27.32,-27.81 -26.92,-72.91 0.89,-100.22l23.57 -23.31c51.39,-50.48 134.73,-49.73 185.21,1.66 50.48,51.38 49.74,134.73 -1.65,185.2l-23.57 23.31c-27.81,27.31 -72.91,26.91 -100.23,-0.9z"/>
    <path class="fil5" d="M388.26 554.49c2.37,-5.72 8.92,-8.43 14.64,-6.07 5.71,2.37 8.43,8.92 6.06,14.63 -2.37,5.72 -8.92,8.44 -14.63,6.07 -5.72,-2.37 -8.43,-8.92 -6.07,-14.63z"/>
    <path class="fil5" d="M467.7 631.98c2.37,-5.71 8.92,-8.43 14.64,-6.06 5.71,2.36 8.43,8.91 6.06,14.63 -2.36,5.71 -8.91,8.43 -14.63,6.06 -5.72,-2.36 -8.43,-8.91 -6.07,-14.63z"/>
    <path class="fil2" d="M350.69 654.75c-8.43,8.22 -8.59,21.72 -0.36,30.15 8.22,8.43 21.72,8.59 30.15,0.36 8.43,-8.22 8.59,-21.72 0.36,-30.15 -8.22,-8.43 -21.72,-8.59 -30.15,-0.36z"/>
    <path class="fil10" d="M392.24 591.83c11.08,11.34 14.09,27.53 9.2,41.55 14.14,-4.55 30.25,-1.15 41.33,10.2 15.59,15.97 15.28,41.56 -0.69,57.15 -15.97,15.59 -41.56,15.28 -57.15,-0.69 -11.08,-11.35 -14.09,-27.53 -9.2,-41.55 -14.14,4.55 -30.25,1.15 -41.32,-10.2 -15.6,-15.97 -15.29,-41.56 0.68,-57.15 15.97,-15.59 41.56,-15.29 57.15,0.69z"/>
    <path class="fil9" d="M420.7 613.72l0.01 -0.01c0,0 1.63,1.65 1.71,1.75 0.1,0.08 -1.71,-1.75 1.73,1.73l-0.01 0.01c3.22,3.69 8.99,19.85 -4.73,23.35 -25.28,6.45 -25.77,-10.18 -23.52,-23.94 2.21,-13.52 17.75,-9.67 24.81,-2.89z"/>
    <path class="fil11" d="M534.66 503.11c27.88,28.56 27.19,48.41 27.41,48.2 0,0 -48.06,20.76 -87.32,10.29 -9.53,-39.5 12.39,-87.05 12.39,-87.05 -0.22,0.22 19.64,0 47.52,28.56z"/>
    <path class="fil11" d="M530.33 690.44c0.76,0.81 -19.16,18.71 -19.16,18.71 0,0 -17.64,-11.07 -19.49,-37.46 0,0 20.7,-0.35 38.65,18.75z"/>
    <path class="fil11" d="M347.5 503.15c-0.8,-0.78 -19.17,18.71 -19.17,18.71 0,0 10.64,17.9 36.98,20.38 0,0 0.84,-20.68 -17.81,-39.09z"/>
   </g>
   <g>
    <path class="fil0" d="M93 147.99c0,0 -51.75,98.32 -35.72,222.51 0.05,0.36 0.11,0.77 0.18,1.23 6.32,41.35 42.97,71.2 84.77,69.78 0,0 -22.34,-68.61 27.78,-148.06l-24.45 -138.13 -52.56 -7.33z"/>
    <path class="fil12" d="M174 331.99l-7.5 12.75c-9.7,16.47 -2.48,38.19 14.75,48.33l0.55 0.33c17.23,10.14 39.33,5.68 49.02,-10.78l10.37 -17.61c-20.98,-13.57 -44.13,-23.38 -67.19,-33.02z"/>
    <g>
     <path class="fil4" d="M109.16 178.1c-47.67,80.06 1.5,146.14 82.1,194.14 80.62,48 162.14,59.74 209.81,-20.32 47.68,-80.06 89.45,-159.24 -52.53,-243.79 -141.99,-84.55 -191.7,-10.09 -239.38,69.97z"/>
    </g>
    <path class="fil13" d="M295.43 314.19c-10.19,17.31 -3.86,39.93 14.15,50.53 18,10.6 40.85,5.17 51.05,-12.14 10.19,-17.31 3.86,-39.93 -14.15,-50.53 -18,-10.6 -40.86,-5.17 -51.05,12.14z"/>
    <path class="fil13" d="M211.92 265.02c-10.19,17.3 -33.04,22.74 -51.05,12.14 -18,-10.6 -24.33,-33.22 -14.14,-50.53 10.19,-17.31 33.05,-22.75 51.05,-12.15 18,10.6 24.33,33.23 14.14,50.54z"/>
    <path class="fil0" d="M467.17 107.44c-22.69,-27.35 -47.95,-49.61 -73.98,-66.63 -57.85,-37.84 -119.48,-49.78 -165.03,-34.08 -47.22,16.28 -94.09,82.44 -109.35,105.59 8.03,3.78 16.37,15.63 16.37,15.63 86.2,19.3 129.65,-48.93 129.65,-48.93 0,0 -18.63,55.12 25.37,119.9 33.52,49.35 90.46,42.79 112.46,81.9 22.98,40.86 11.36,65.74 5.65,79.49 -5.72,13.74 18.84,-5.38 36.38,-33.56 0,0 95.62,-131.19 22.48,-219.31z"/>
    <g>
     <g>
      <path class="fil4" d="M141.55 165.28c-10.12,17 -32.1,22.57 -49.1,12.45 -17,-10.12 -22.58,-32.11 -12.45,-49.11 10.12,-17 32.1,-22.58 49.1,-12.45 17,10.12 22.58,32.11 12.45,49.11z"/>
     </g>
    </g>
    <path class="fil13" d="M111.68 128.79c-4.16,-0.46 -7.56,0.38 -10.19,2.05 8.2,1.1 12.45,6.5 13.47,12.74 -0.52,-0.14 -1.04,-0.28 -1.59,-0.34 -5.74,-0.62 -10.9,3.53 -11.52,9.28 -0.46,4.29 1.75,8.26 5.29,10.24 -0.11,0.08 -0.2,0.17 -0.31,0.25 1.2,0.43 2.5,1.88 3.88,2.08 0.14,0.02 0.27,1.23 0.41,1.23 0.04,0 0.07,0 0.1,0 0.06,0 0.11,-1.12 0.17,-1.12 22.59,2.45 22.66,-34 0.29,-36.41z"/>
    <path class="fil5" d="M340.17 294.1c-3.32,6.64 -0.63,14.72 6.01,18.04 6.64,3.32 14.72,0.63 18.04,-6.02 3.32,-6.64 0.63,-14.72 -6.01,-18.04 -6.64,-3.32 -14.72,-0.63 -18.04,6.02z"/>
    <path class="fil5" d="M194.76 202.26c-3.32,6.64 -0.63,14.72 6.01,18.04 6.64,3.32 14.72,0.63 18.04,-6.01 3.32,-6.65 0.63,-14.72 -6.01,-18.04 -6.64,-3.33 -14.72,-0.63 -18.04,6.01z"/>
    <g>
     <path class="fil9" d="M224.57 333.61c-13.98,-9.05 -23.94,-22.85 -28.13,-39.05 -0.32,-1.23 0.42,-2.49 1.66,-2.81 1.24,-0.32 2.5,0.42 2.81,1.65 4.04,15.59 13.79,28.78 27.52,37.18 13.71,8.38 29.92,11.06 45.62,7.55 1.25,-0.28 2.49,0.5 2.76,1.75 0.28,1.24 -0.5,2.48 -1.75,2.76 -16.88,3.78 -34.3,0.89 -49.04,-8.12 -0.49,-0.3 -0.97,-0.6 -1.45,-0.91z"/>
    </g>
   </g>
  </g>
 </g>
</svg>
