<?xml version="1.0" encoding="UTF-8"?>
<!DOCTYPE svg PUBLIC "-//W3C//DTD SVG 1.1//EN" "http://www.w3.org/Graphics/SVG/1.1/DTD/svg11.dtd">
<!-- Creator: CorelDRAW 2019 (64 Bit) -->
<svg xmlns="http://www.w3.org/2000/svg" xml:space="preserve" width="645px" height="716px" version="1.1" style="shape-rendering:geometricPrecision; text-rendering:geometricPrecision; image-rendering:optimizeQuality; fill-rule:evenodd; clip-rule:evenodd"
viewBox="0 0 310.29 344.42"
 xmlns:xlink="http://www.w3.org/1999/xlink"
 xmlns:xodm="http://www.corel.com/coreldraw/odm/2003">
 <defs>
  <style type="text/css">
   <![CDATA[
    .str0 {stroke:#FFA8A5;stroke-width:2.04;stroke-linecap:round;stroke-miterlimit:10}
    .fil9 {fill:none;fill-rule:nonzero}
    .fil3 {fill:#54341C;fill-rule:nonzero}
    .fil15 {fill:#592A00;fill-rule:nonzero}
    .fil5 {fill:#5DC3CC;fill-rule:nonzero}
    .fil4 {fill:#89CFC8;fill-rule:nonzero}
    .fil1 {fill:#93CD5D;fill-rule:nonzero}
    .fil10 {fill:#9C561A;fill-rule:nonzero}
    .fil16 {fill:#CF6700;fill-rule:nonzero}
    .fil11 {fill:#E47B18;fill-rule:nonzero}
    .fil7 {fill:#EF9E97;fill-rule:nonzero}
    .fil14 {fill:#F2A5AE;fill-rule:nonzero}
    .fil6 {fill:#FFAC1F;fill-rule:nonzero}
    .fil0 {fill:#FFD4BC;fill-rule:nonzero}
    .fil13 {fill:#FFE2D0;fill-rule:nonzero}
    .fil12 {fill:#9C561A;fill-rule:nonzero;fill-opacity:0.301961}
    .fil8 {fill:#FFA8A5;fill-rule:nonzero;fill-opacity:0.400000}
    .fil2 {fill:#FFA8A5;fill-rule:nonzero;fill-opacity:0.600000}
   ]]>
  </style>
 </defs>
 <g id="Camada_x0020_1">
  <metadata id="CorelCorpID_0Corel-Layer"/>
  <g id="_2284718904208">
   <g>
    <g>
     <path class="fil0" d="M146.13 193.24c-7.15,1.81 -11.48,9.08 -9.66,16.22 1.81,7.15 9.07,11.48 16.22,9.67 7.14,-1.81 11.47,-9.07 9.66,-16.22 -1.81,-7.15 -9.07,-11.48 -16.22,-9.67z"/>
     <path class="fil1" d="M156.21 214.15l-13.16 -20.67c-3.13,1.17 -6.26,0.07 -7.95,-2.58 -1.97,-3.1 -1.14,-7.15 1.95,-9.12 1.89,-1.2 4.11,-1.29 6.04,-0.5 0.1,-2.08 1.14,-4.07 3.03,-5.28 3.1,-1.97 7.02,-0.94 8.99,2.15 1.69,2.65 1.36,5.96 -1.03,8.3l13.17 20.67c3.13,-1.17 6.26,-0.07 7.94,2.58 1.97,3.09 1.15,7.15 -1.94,9.12 -1.89,1.2 -4.12,1.29 -6.05,0.5 -0.1,2.08 -1.14,4.07 -3.03,5.28 -3.09,1.97 -7.01,0.94 -8.99,-2.15 -1.68,-2.65 -1.35,-5.96 1.03,-8.3z"/>
    </g>
    <g>
     <path class="fil0" d="M110.65 274.73c11.02,-9.66 34.44,-2.76 33.49,6.98 -0.96,9.75 -18.62,23.53 -10.8,33.09 7.81,9.56 33.79,13.23 35.54,6.74 1.76,-6.48 -15.61,-15.35 -15.61,-15.35 0,0 19.64,-21.97 5.8,-40.04 -13.83,-18.07 -35.66,-18.46 -54.54,-11.65l6.12 20.23z"/>
     <path class="fil2" d="M152.94 259.68c-3.74,5.39 -7.5,10.79 -11.5,16 -6.35,-5.99 -22.27,-8.42 -30.79,-0.95l-6.12 -20.23c16.29,-5.87 34.76,-6.38 48.41,5.18z"/>
     <path class="fil3" d="M153.12 312.72c-7.58,2.87 -14.91,-3.11 -20.25,-9.58 -1.85,4.18 -2.36,8.2 0.47,11.66 7.81,9.56 33.79,13.23 35.54,6.74 1.34,-4.91 -8.29,-11.18 -13.05,-13.94 0.59,1.99 -0.7,4.36 -2.71,5.12z"/>
    </g>
    <g>
     <path class="fil0" d="M92.25 297.09c3.59,-3.93 0.88,-11.5 -4.68,-17.4 6.36,-2.12 12.32,-5.72 17.45,-10.31 5.15,6.44 8.38,14.44 8.51,24.16 0.3,22.76 -28.58,28.64 -28.58,28.64 0,0 8.63,17.49 3.35,21.64 -5.29,4.15 -23.92,-14.31 -24.48,-26.65 -0.55,-12.33 21.84,-12.83 28.43,-20.08z"/>
     <path class="fil2" d="M91.88 285.63c-1.07,-2.04 -2.55,-4.07 -4.31,-5.94 6.36,-2.12 12.32,-5.72 17.45,-10.31 3.24,4.05 5.72,8.72 7.15,14.05 -6.84,2.34 -13.56,2.94 -20.29,2.2z"/>
     <path class="fil3" d="M80.92 327.33c-7.78,-2.23 -10.09,-11.4 -10.5,-19.78 -3.98,2.24 -6.8,5.15 -6.6,9.62 0.56,12.34 19.19,30.8 24.48,26.65 4,-3.14 0.02,-13.92 -2.14,-18.98 -0.71,1.95 -3.17,3.08 -5.24,2.49z"/>
    </g>
    <g>
     <path class="fil4" d="M36.88 144.05c0,0 0.09,0.07 0.26,0.19 2.45,-16.44 11.31,-31.99 24.65,-41.99 0,0 33.1,23.14 33.41,22.91 -2.72,14.17 -2.18,27.25 3.32,40.64 11.38,27.7 41.91,30.75 41.91,30.75 0,0 -3.23,10.77 2.18,21.53 -1.3,0.16 -11.71,1.09 -16.35,-1.36 8.72,16.35 29.17,33.82 29.17,33.82 -21.63,34.95 -72.79,31.2 -72.79,31.2 -70.72,-59.9 -45.76,-137.69 -45.76,-137.69z"/>
    </g>
    <path class="fil5" d="M126.26 216.72c0,0 -0.87,-0.1 -2.36,-0.51 -0.73,-0.24 -1.65,-0.48 -2.63,-0.9 -1.01,-0.38 -2.11,-0.87 -3.29,-1.48 -1.17,-0.61 -2.45,-1.29 -3.72,-2.12 -1.26,-0.84 -2.59,-1.74 -3.87,-2.8 -1.33,-1.01 -2.56,-2.2 -3.83,-3.4 -1.27,-1.2 -2.39,-2.57 -3.59,-3.87 -1.08,-1.4 -2.17,-2.8 -3.16,-4.22 -0.94,-1.46 -1.84,-2.92 -2.67,-4.34 -0.76,-1.47 -1.45,-2.91 -2.1,-4.27 -0.64,-1.36 -1.06,-2.73 -1.52,-3.96 -0.45,-1.23 -0.85,-2.36 -1.07,-3.41 -0.27,-1.03 -0.46,-1.95 -0.62,-2.69 -0.32,-1.5 -0.44,-2.36 -0.44,-2.36 0,0 0.52,0.72 1.34,1.99 0.41,0.64 0.92,1.41 1.44,2.31 0.51,0.9 1.21,1.85 1.88,2.93 0.72,1.05 1.41,2.23 2.23,3.42 0.83,1.18 1.69,2.43 2.55,3.73 0.93,1.26 1.91,2.54 2.84,3.87 1.02,1.27 2.04,2.57 3.07,3.86 1.1,1.23 2.14,2.53 3.24,3.71 1.13,1.18 2.18,2.39 3.3,3.46 1.08,1.12 2.18,2.14 3.23,3.12 1.04,0.98 2.06,1.88 3.01,2.71 0.98,0.78 1.85,1.56 2.67,2.18 0.83,0.64 1.54,1.2 2.14,1.65 1.21,0.89 1.93,1.39 1.93,1.39z"/>
    <g>
     <path class="fil0" d="M70.69 226.75c-7.37,-0.04 -13.32,-6.05 -13.28,-13.43 0.04,-7.37 6.05,-13.32 13.42,-13.28 7.38,0.04 13.32,6.05 13.28,13.43 -0.04,7.37 -6.05,13.31 -13.42,13.28z"/>
     <path class="fil4" d="M65.55 143.69c0,0 0,-0.14 -0.01,0.1 -0.01,0.19 -0.02,0.27 -0.03,0.5 -0.03,0.45 -0.08,0.89 -0.15,1.43 -0.19,1.3 -0.35,1.71 -0.59,2.62 -0.47,1.54 -1.21,3.18 -2,4.48 -0.79,1.35 -1.68,2.55 -2.59,3.64 -1.82,2.17 -3.77,3.99 -5.85,5.81 -2.08,1.81 -4.29,3.58 -6.6,5.42 -4.59,3.66 -9.67,7.61 -13.99,11.94 -2.14,2.14 -4.07,4.38 -5.41,6.48 -1.38,2.1 -2.05,3.93 -2.24,5.29 -0.03,0.35 -0.08,0.68 -0.06,1.02 -0.01,0.17 0.02,0.34 0.02,0.51 0,0.08 0.03,0.17 0.03,0.26l-0.37 0.13 -0.39 0.07 0 0.01c0,0.34 0.29,-0.44 0.31,-0.34l0.22 0.09 0.26 0.71c0.04,0.19 0.06,0.03 0.06,0.04l0.01 -0.06c-0.04,-0.08 -0.01,-0.02 0.01,0.04 0.02,0.06 0.03,0.12 0.06,0.18 0.07,0.23 0.21,0.5 0.36,0.79 0.32,0.57 0.82,1.22 1.45,1.83 0.31,0.31 0.66,0.6 1.02,0.87l0.14 0.11 0.06 0.05c0.05,0.03 -0.31,-0.2 -0.14,-0.09l0.03 0.02 0.07 0.05 0.58 0.38c0.26,0.15 0.22,0.15 0.52,0.32 1.83,1.1 4.24,2.01 6.89,2.72 0.63,0.17 1.41,0.36 1.95,0.49 0.72,0.16 1.44,0.31 2.14,0.47 1.25,0.26 2.62,0.5 3.85,0.68 5.02,0.76 9.28,0.89 12.25,0.85 2.97,-0.03 4.67,-0.19 4.67,-0.19l2.19 22.17c0,0 -0.55,0.06 -1.57,0.17 -1.03,0.11 -2.53,0.24 -4.46,0.36 -3.84,0.22 -9.36,0.31 -15.94,-0.38 -1.67,-0.17 -3.32,-0.38 -5.17,-0.68 -0.84,-0.14 -1.7,-0.29 -2.57,-0.44 -1.05,-0.19 -1.88,-0.36 -2.88,-0.58 -3.85,-0.86 -8.24,-2.11 -12.84,-4.51 -0.51,-0.25 -1.33,-0.73 -1.87,-1.04l-0.59 -0.35 -0.99 -0.64c-1.17,-0.78 -2.31,-1.63 -3.4,-2.57 -2.19,-1.87 -4.25,-4.09 -6.01,-6.74 -0.88,-1.33 -1.7,-2.74 -2.38,-4.28 -0.18,-0.38 -0.33,-0.78 -0.49,-1.17 -0.16,-0.39 -0.31,-0.78 -0.49,-1.32l-0.44 -1.41 -0.19 -0.7 -0.15 -0.59 -0.06 -0.3 -0.12 -0.58c-0.08,-0.39 -0.17,-0.77 -0.22,-1.17 -0.12,-0.8 -0.24,-1.59 -0.3,-2.39 -0.16,-1.61 -0.15,-3.23 -0.06,-4.82 0.43,-6.43 2.72,-12.05 5.29,-16.49 2.61,-4.5 5.55,-8.08 8.42,-11.25 5.76,-6.27 23.17,-28.9 27.54,-32.73 2.18,-1.9 23.21,14.71 23.21,14.71z"/>
    </g>
    <g>
     <path class="fil6" d="M138.25 66.85c4.91,20.16 23.44,73.57 -40.32,58.31l22.89 -59.4 17.43 1.09z"/>
     <path class="fil7" d="M61.9 123.3l-1.52 4.86c-1.96,6.29 2.16,13.01 8.74,15.06l0.21 0.07c6.58,2.05 13.64,-1.18 15.6,-7.46l2.1 -6.72c-8.1,-2.91 -16.64,-4.38 -25.13,-5.81z"/>
     <path class="fil0" d="M18.41 97.21c3.65,31.89 30.93,39.73 63.04,36.04 32.11,-3.68 56.9,-17.49 53.24,-49.38 -3.66,-31.89 -8.75,-62.31 -65.31,-55.82 -56.56,6.48 -54.63,37.26 -50.97,69.16z"/>
     <path class="fil8" d="M97.86 95.59c0.83,6.88 7.29,11.75 14.43,10.9 7.15,-0.86 12.28,-7.12 11.45,-13.99 -0.82,-6.87 -7.28,-11.75 -14.43,-10.89 -7.14,0.85 -12.27,7.11 -11.45,13.98z"/>
     <path class="fil8" d="M64.71 99.56c0.83,6.87 -4.3,13.14 -11.45,13.99 -7.14,0.86 -13.6,-4.02 -14.43,-10.89 -0.82,-6.87 4.31,-13.13 11.45,-13.99 7.15,-0.86 13.61,4.02 14.43,10.89z"/>
     <path class="fil6" d="M45.41 39.69c0,0 -3.61,34.25 -30.35,38.34 0,0 -4.76,-1.5 -7.75,-0.86 -0.65,-9.53 -1.63,-37.45 7.91,-51.77 9.2,-13.81 28.58,-23.41 52.33,-25.12 10.69,-0.78 22.26,0.05 34.19,2.8 38.44,8.87 41.71,64.69 41.71,64.69 1.34,17.07 -91.7,-5.1 -98.04,-28.08z"/>
     <path class="fil3" d="M105.92 80.75c0.48,2.51 2.91,4.16 5.42,3.68 2.51,-0.47 4.16,-2.9 3.69,-5.41 -0.48,-2.51 -2.91,-4.17 -5.42,-3.69 -2.51,0.48 -4.16,2.9 -3.69,5.42z"/>
     <path class="fil3" d="M46.9 85.95c0.48,2.52 2.91,4.17 5.42,3.69 2.51,-0.48 4.16,-2.9 3.69,-5.42 -0.48,-2.51 -2.91,-4.16 -5.42,-3.68 -2.51,0.47 -4.16,2.9 -3.69,5.41z"/>
     <path class="fil6" d="M18.65 97.49c3.73,11.5 27.26,17.89 21.45,29.8 -5.81,11.91 -53.45,18.88 -33.98,-27.3 0,0 8.81,-14.01 12.53,-2.5z"/>
     <path class="fil0" d="M24.6 86.93c0.78,6.77 -4.08,12.89 -10.85,13.67 -6.77,0.77 -12.89,-4.09 -13.67,-10.86 -0.77,-6.77 4.09,-12.89 10.86,-13.67 6.77,-0.77 12.89,4.09 13.66,10.86z"/>
     <path class="fil8" d="M8.8 83.17c-1.24,0.75 -1.99,1.68 -2.37,2.69 2.48,-1.41 4.77,-0.82 6.35,0.68 -0.17,0.07 -0.34,0.14 -0.5,0.24 -1.7,1.03 -2.25,3.24 -1.22,4.94 0.77,1.28 2.2,1.9 3.59,1.71 -0.01,0.04 -0.02,0.09 -0.03,0.13 0.42,-0.13 1.03,-0.06 1.45,-0.3 0.04,-0.02 0.29,0.23 0.33,0.2 0.01,-0.01 0.02,-0.01 0.03,-0.02 0.01,-0.01 -0.17,-0.27 -0.15,-0.28 6.7,-4.05 -0.85,-14 -7.48,-9.99z"/>
     <path class="fil9 str0" d="M83.08 110.84c-2.41,2.03 -5.92,2.66 -8.89,1.6 -2.97,-1.05 -5.29,-3.76 -5.88,-6.86"/>
    </g>
   </g>
   <g>
    <path class="fil10" d="M283.52 320.76c0,0 0.78,-0.28 2.15,-0.77 0.43,-0.16 0.96,-0.34 1.44,-0.55 0.46,-0.2 0.96,-0.42 1.49,-0.66 1.06,-0.5 2.21,-1.1 3.43,-1.82 1.21,-0.75 2.49,-1.58 3.75,-2.57 1.28,-0.96 2.53,-2.09 3.76,-3.3 1.23,-1.23 2.4,-2.58 3.49,-4.01 0.53,-0.74 1.07,-1.47 1.55,-2.25 0.25,-0.38 0.5,-0.76 0.72,-1.16l0.78 -1.34c0.53,-1.09 1.57,-3.24 2.09,-4.78 0.58,-1.67 1.05,-3.32 1.38,-4.94 0.32,-1.63 0.55,-3.2 0.64,-4.69 0.12,-1.49 0.11,-2.91 0.07,-4.2 -0.07,-1.29 -0.19,-2.47 -0.33,-3.51 -0.17,-1.03 -0.33,-1.93 -0.5,-2.66 -0.15,-0.73 -0.33,-1.29 -0.43,-1.68 -0.11,-0.38 -0.16,-0.59 -0.16,-0.59 -0.7,-2.52 -3.31,-3.99 -5.83,-3.3 -2.18,0.61 -3.58,2.64 -3.46,4.81l0.02 0.41c0,0 0.01,0.16 0.03,0.44 0.01,0.29 0.05,0.71 0.04,1.24 0.02,0.54 -0.01,1.18 -0.05,1.92 -0.05,0.74 -0.14,1.56 -0.29,2.45 -0.17,0.89 -0.36,1.84 -0.66,2.82 -0.27,0.98 -0.66,1.98 -1.08,2.99 -0.45,1 -0.98,1.99 -1.56,2.94 -0.68,1.07 -1.05,1.48 -2.08,2.84 0.19,-0.3 0.04,-0.07 0.08,-0.14l-0.01 0.01 -0.01 0.02 -0.04 0.04 -0.07 0.07 -0.14 0.16 -0.28 0.3c-0.17,0.21 -0.38,0.4 -0.57,0.59 -0.38,0.39 -0.8,0.75 -1.19,1.11 -0.84,0.69 -1.68,1.32 -2.54,1.86 -0.87,0.53 -1.71,1.02 -2.55,1.39 -0.82,0.4 -1.64,0.69 -2.37,0.94 -0.75,0.24 -1.44,0.42 -2.04,0.55 -0.31,0.06 -0.59,0.12 -0.86,0.17 -0.24,0.04 -0.4,0.04 -0.57,0.06 -1.11,0.15 -1.74,0.23 -1.74,0.23 -5.25,0.7 -8.94,5.53 -8.24,10.79 0.7,5.25 5.53,8.95 10.79,8.24 0.66,-0.09 1.35,-0.26 1.95,-0.47z"/>
    <path class="fil11" d="M186.52 331.26c-0.23,-2.93 1.01,-6.54 6.31,-10.26 -0.4,-12.86 -0.74,-30.94 1.2,-54.2 1.88,-22.52 6.45,-42.51 8.92,-49.26 0.32,0.16 1,0.44 1,0.8l0 -13.62c0,0 40.59,-24.86 52.94,-3.12 12.35,21.73 35.62,98.52 35.62,98.52 1.24,3.97 1.7,7.75 1.36,11.89 -1.36,16.89 -15.47,29.5 -32.42,29.5 0,0 -38.09,-0.49 -42.03,-0.67 -24.79,-1.13 -32,-2.48 -32.9,-9.58z"/>
    <path class="fil12" d="M222.8 218.54c12.61,-3.15 23.14,-11.27 35.48,-14.73 1.46,2.81 4.3,8.9 5.95,12.8 -14.54,20.17 -32.21,33.3 -66.14,21.07 1.26,-6.49 2.58,-11.93 3.71,-15.87 7.04,-0.48 14.04,-1.53 21,-3.27z"/>
    <path class="fil13" d="M218.42 320.27c0,0 5.58,-54.88 -6.73,-59.57 -12.31,-4.69 -9.06,79.24 -9.06,79.24l13.75 0.79c0,0 -10.9,-4.01 -8.45,-12.29 1.8,-6.08 10.49,-8.17 10.49,-8.17z"/>
    <g>
     <path class="fil11" d="M185.79 202.48l14.11 -73.73c7.54,-13.94 25.11,-19.18 39.05,-11.64l42.99 23.26c13.94,7.54 19.17,25.11 11.63,39.06l-52.13 50.7 -55.65 -27.65z"/>
     <path class="fil14" d="M224.6 216.56l-5.97 10.44c-2.82,4.92 -9.04,6.65 -13.9,3.87l-0.26 -0.15c-4.85,-2.79 -6.51,-9.03 -3.69,-13.96l5.72 -9.99 18.1 9.79z"/>
     <path class="fil13" d="M213.36 177.14c9.91,-2.59 28.51,3.66 31.72,17.42 0,0 2.28,6.81 3.05,17.98 0.76,11.17 -5.03,18.07 -5.03,18.07 -4.31,7.97 -13.94,11.24 -21.9,6.93 -13.55,-7.33 -7.57,-23.21 -7.57,-23.21 -4.46,2.12 -10.01,13.7 -22.56,6.91 -7.97,-4.31 -10.04,-13.91 -5.73,-21.88 0,0 3.22,-7.77 13.3,-14.96 6.08,-4.34 14.72,-7.26 14.72,-7.26z"/>
     <path class="fil15" d="M228.82 189.96l0.01 -0.01c0,0 -0.74,-0.39 -0.83,-0.44 -0.08,-0.04 0.83,0.44 -0.82,-0.45l-0.01 0.01c-8.35,-4.28 -17.15,-2.93 -16.82,7.63 0.6,19.46 12.38,16.24 21.78,11.78 9.23,-4.37 4.85,-13.87 -3.31,-18.52z"/>
     <path class="fil10" d="M287.95 145.2l12.6 17.68c6.02,8.44 6.52,19.63 1.27,28.57l-1.73 2.96c-4.43,7.53 -10.53,13.95 -17.83,18.76l0 0c-4.67,3.07 -10.89,-0.11 -11.16,-5.69 -0.49,-9.86 0.43,-24.15 7.53,-36.57 12.3,-21.53 9.32,-25.71 9.32,-25.71z"/>
     <path class="fil10" d="M231.88 114.87l-21.69 -0.88c-10.36,-0.42 -20,5.29 -24.62,14.57l-1.52 3.07c-3.89,7.83 -5.92,16.44 -5.95,25.19 -0.02,5.59 6.05,9.05 10.87,6.23 8.52,-4.99 19.97,-13.58 26.49,-26.32 11.29,-22.07 16.42,-21.86 16.42,-21.86z"/>
     <path class="fil15" d="M254.32 172.97c-1.24,2.3 -0.38,5.17 1.92,6.42 2.3,1.24 5.17,0.39 6.41,-1.91 1.25,-2.3 0.39,-5.18 -1.91,-6.42 -2.3,-1.25 -5.17,-0.39 -6.42,1.91z"/>
     <path class="fil15" d="M226.9 158.13c-1.25,2.3 -4.12,3.16 -6.42,1.91 -2.3,-1.24 -3.16,-4.12 -1.91,-6.42 1.24,-2.3 4.12,-3.15 6.42,-1.91 2.3,1.25 3.15,4.12 1.91,6.42z"/>
    </g>
    <path class="fil16" d="M244.78 297.28c-1.69,1.49 -3.14,3.12 -4.43,4.87 -1.27,1.76 -2.39,3.6 -3.31,5.54 -0.96,1.92 -1.74,3.92 -2.39,5.96 -0.34,1.01 -0.64,2.04 -0.9,3.07 -0.13,0.52 -0.26,1.04 -0.36,1.56 -0.11,0.5 -0.21,1.05 -0.28,1.5l-0.22 1.37 -1.42 0.13c-1.98,0.18 -3.95,0.4 -5.89,0.71 -0.96,0.18 -1.95,0.31 -2.89,0.54 -0.96,0.18 -1.9,0.39 -2.83,0.65 -0.93,0.24 -1.84,0.53 -2.72,0.86 -0.88,0.33 -1.72,0.72 -2.52,1.15 -1.58,0.86 -2.97,1.95 -3.82,3.36 -0.47,0.69 -0.71,1.47 -0.95,2.33 -0.21,0.81 -0.29,1.65 -0.18,2.41 0.19,1.54 1.27,2.89 2.82,3.91 1.56,0.99 3.41,1.71 5.32,2.26 1.91,0.56 3.9,0.99 5.9,1.38 -2.04,0.11 -4.09,0.11 -6.15,-0.12 -2.05,-0.25 -4.14,-0.65 -6.13,-1.62 -1,-0.47 -1.98,-1.12 -2.81,-1.99 -0.82,-0.89 -1.47,-2.03 -1.74,-3.25 -0.3,-1.22 -0.28,-2.44 -0.1,-3.61 0.21,-1.11 0.55,-2.3 1.15,-3.34 1.15,-2.13 3,-3.72 4.91,-4.85 0.97,-0.55 1.97,-1.02 2.98,-1.42 1,-0.4 2.02,-0.74 3.04,-1.03 1.02,-0.3 2.05,-0.55 3.08,-0.76 1.03,-0.23 2.06,-0.34 3.09,-0.52 2.05,-0.29 4.11,-0.48 6.17,-0.64l-1.64 1.5c0.12,-0.64 0.27,-1.17 0.42,-1.74 0.16,-0.56 0.32,-1.12 0.5,-1.67 0.35,-1.09 0.74,-2.18 1.17,-3.24 0.9,-2.12 1.96,-4.17 3.2,-6.1 1.28,-1.91 2.7,-3.73 4.38,-5.28 0.82,-0.8 1.71,-1.52 2.64,-2.17 0.91,-0.67 1.92,-1.2 2.91,-1.71z"/>
   </g>
  </g>
 </g>
</svg>
