<?xml version="1.0" encoding="UTF-8"?>
<!DOCTYPE svg PUBLIC "-//W3C//DTD SVG 1.1//EN" "http://www.w3.org/Graphics/SVG/1.1/DTD/svg11.dtd">
<!-- Creator: CorelDRAW 2019 (64 Bit) -->
<svg xmlns="http://www.w3.org/2000/svg" xml:space="preserve" width="210px" height="50px" version="1.1" style="shape-rendering:geometricPrecision; text-rendering:geometricPrecision; image-rendering:optimizeQuality; fill-rule:evenodd; clip-rule:evenodd"
viewBox="0 0 91.97 21.9"
 xmlns:xlink="http://www.w3.org/1999/xlink"
 xmlns:xodm="http://www.corel.com/coreldraw/odm/2003">
 <defs>
  <style type="text/css">
   <![CDATA[
    .fil2 {fill:#0098DA}
    .fil0 {fill:#F58634;fill-rule:nonzero}
    .fil1 {fill:#0098DA;fill-rule:nonzero}
   ]]>
  </style>
 </defs>
 <g id="Camada_x0020_1">
  <metadata id="CorelCorpID_0Corel-Layer"/>
  <g id="_2899062643280">
   <g>
    <path class="fil0" d="M37.8 15.01l-3.04 0c-0.11,0.41 -0.21,0.78 -0.29,1.13 -0.08,0.34 -0.16,0.67 -0.24,0.97 -0.16,0.06 -0.32,0.11 -0.5,0.14 -0.17,0.04 -0.38,0.06 -0.63,0.06 -0.57,0 -0.99,-0.09 -1.26,-0.29 -0.28,-0.2 -0.42,-0.47 -0.42,-0.82 0,-0.15 0.03,-0.31 0.07,-0.47 0.05,-0.15 0.1,-0.34 0.15,-0.55 0.08,-0.3 0.19,-0.68 0.33,-1.13 0.14,-0.46 0.29,-0.94 0.46,-1.46 0.17,-0.52 0.35,-1.06 0.54,-1.6 0.19,-0.54 0.37,-1.06 0.54,-1.54 0.16,-0.49 0.32,-0.93 0.46,-1.31 0.14,-0.39 0.25,-0.68 0.32,-0.88 0.2,-0.12 0.48,-0.22 0.87,-0.32 0.39,-0.1 0.77,-0.15 1.17,-0.15 0.56,0 1.05,0.08 1.48,0.24 0.43,0.16 0.71,0.42 0.83,0.78 0.2,0.57 0.42,1.24 0.66,2.01 0.23,0.78 0.47,1.57 0.7,2.4 0.24,0.82 0.47,1.63 0.69,2.43 0.23,0.8 0.42,1.51 0.59,2.13 -0.13,0.15 -0.34,0.28 -0.61,0.37 -0.26,0.1 -0.58,0.15 -0.95,0.15 -0.55,0 -0.93,-0.09 -1.14,-0.27 -0.22,-0.18 -0.37,-0.47 -0.47,-0.86l-0.31 -1.16zm-1.49 -5.59c-0.16,0.46 -0.33,0.97 -0.52,1.53 -0.19,0.56 -0.38,1.16 -0.56,1.8l2.09 0c-0.16,-0.64 -0.32,-1.24 -0.48,-1.81 -0.16,-0.56 -0.31,-1.07 -0.43,-1.52l-0.1 0z"/>
    <path id="1" class="fil0" d="M46.27 8.72c0.48,0 0.89,0.06 1.24,0.18l0 -2.72c0.12,-0.03 0.3,-0.07 0.53,-0.1 0.23,-0.03 0.48,-0.05 0.74,-0.05 0.56,0 0.97,0.09 1.21,0.28 0.25,0.18 0.37,0.54 0.37,1.06l0 7.96c0,0.53 -0.24,0.95 -0.74,1.26 -0.32,0.21 -0.74,0.4 -1.25,0.56 -0.51,0.17 -1.1,0.25 -1.77,0.25 -1.46,0 -2.61,-0.36 -3.42,-1.09 -0.82,-0.72 -1.23,-1.8 -1.23,-3.23 0,-0.74 0.11,-1.38 0.34,-1.93 0.22,-0.55 0.53,-1 0.91,-1.36 0.39,-0.36 0.84,-0.63 1.37,-0.8 0.53,-0.18 1.09,-0.27 1.7,-0.27zm1.26 2.41c-0.13,-0.05 -0.26,-0.1 -0.41,-0.13 -0.14,-0.03 -0.29,-0.05 -0.45,-0.05 -0.58,0 -1.03,0.18 -1.35,0.53 -0.32,0.35 -0.48,0.89 -0.48,1.6 0,0.71 0.15,1.23 0.45,1.56 0.3,0.34 0.74,0.51 1.29,0.51 0.21,0 0.39,-0.03 0.56,-0.07 0.17,-0.04 0.3,-0.1 0.39,-0.15l0 -3.8z"/>
    <path id="2" class="fil0" d="M60.59 13.05c0,0.67 -0.11,1.27 -0.31,1.81 -0.21,0.54 -0.51,1 -0.89,1.37 -0.39,0.37 -0.85,0.66 -1.39,0.86 -0.54,0.21 -1.14,0.31 -1.81,0.31 -0.67,0 -1.28,-0.1 -1.81,-0.3 -0.54,-0.19 -1,-0.48 -1.39,-0.85 -0.39,-0.38 -0.68,-0.83 -0.89,-1.37 -0.21,-0.54 -0.31,-1.15 -0.31,-1.83 0,-0.66 0.11,-1.26 0.32,-1.8 0.21,-0.54 0.51,-0.99 0.9,-1.37 0.38,-0.37 0.84,-0.66 1.38,-0.86 0.54,-0.2 1.14,-0.3 1.8,-0.3 0.66,0 1.26,0.1 1.8,0.31 0.53,0.2 0.99,0.5 1.38,0.87 0.39,0.38 0.69,0.83 0.9,1.37 0.21,0.54 0.32,1.13 0.32,1.78zm-4.4 -2.1c-0.47,0 -0.84,0.18 -1.09,0.55 -0.26,0.36 -0.39,0.88 -0.39,1.55 0,0.7 0.13,1.23 0.39,1.58 0.25,0.36 0.62,0.53 1.09,0.53 0.47,0 0.83,-0.18 1.09,-0.53 0.26,-0.36 0.39,-0.89 0.39,-1.58 0,-0.67 -0.13,-1.19 -0.39,-1.55 -0.26,-0.37 -0.62,-0.55 -1.09,-0.55z"/>
    <path id="3" class="fil0" d="M65.09 17.38c-0.99,0 -1.75,-0.22 -2.28,-0.67 -0.53,-0.45 -0.8,-1.18 -0.8,-2.18l0 -7.46c0.13,-0.03 0.3,-0.07 0.53,-0.11 0.23,-0.04 0.48,-0.06 0.73,-0.06 0.55,0 0.95,0.1 1.2,0.29 0.24,0.19 0.37,0.54 0.37,1.06l0 0.9 2.2 0c0.06,0.13 0.13,0.28 0.19,0.46 0.06,0.19 0.09,0.39 0.09,0.62 0,0.39 -0.09,0.67 -0.26,0.85 -0.17,0.17 -0.41,0.26 -0.7,0.26l-1.52 0 0 2.98c0,0.3 0.09,0.5 0.27,0.63 0.19,0.12 0.45,0.18 0.78,0.18 0.17,0 0.34,-0.01 0.52,-0.04 0.18,-0.03 0.34,-0.07 0.47,-0.11 0.1,0.12 0.19,0.26 0.26,0.41 0.08,0.15 0.11,0.33 0.11,0.55 0,0.42 -0.16,0.77 -0.48,1.04 -0.31,0.27 -0.88,0.4 -1.68,0.4z"/>
    <path id="4" class="fil0" d="M71.03 14.17c0.16,0.41 0.42,0.69 0.79,0.85 0.37,0.16 0.78,0.24 1.24,0.24 0.47,0 0.92,-0.05 1.35,-0.17 0.42,-0.12 0.76,-0.26 1.02,-0.41 0.18,0.11 0.33,0.27 0.45,0.47 0.13,0.2 0.19,0.41 0.19,0.63 0,0.28 -0.08,0.53 -0.24,0.73 -0.15,0.2 -0.37,0.37 -0.66,0.5 -0.29,0.13 -0.62,0.23 -1.02,0.29 -0.39,0.07 -0.82,0.1 -1.29,0.1 -0.66,0 -1.27,-0.1 -1.84,-0.28 -0.56,-0.18 -1.05,-0.46 -1.47,-0.83 -0.41,-0.37 -0.73,-0.84 -0.97,-1.39 -0.24,-0.56 -0.35,-1.22 -0.35,-1.97 0,-0.74 0.12,-1.37 0.36,-1.9 0.24,-0.54 0.56,-0.97 0.96,-1.31 0.39,-0.35 0.84,-0.6 1.35,-0.76 0.5,-0.16 1.02,-0.24 1.54,-0.24 0.6,0 1.14,0.09 1.62,0.27 0.49,0.17 0.91,0.42 1.26,0.73 0.35,0.32 0.63,0.69 0.82,1.13 0.19,0.44 0.28,0.91 0.28,1.43 0,0.38 -0.11,0.67 -0.32,0.87 -0.21,0.2 -0.51,0.33 -0.89,0.39l-4.18 0.63zm1.43 -3.37c-0.43,0 -0.78,0.13 -1.07,0.38 -0.28,0.26 -0.45,0.63 -0.51,1.1l2.85 -0.47c-0.01,-0.12 -0.04,-0.23 -0.1,-0.35 -0.05,-0.12 -0.13,-0.22 -0.23,-0.33 -0.1,-0.1 -0.23,-0.18 -0.39,-0.24 -0.15,-0.06 -0.34,-0.09 -0.55,-0.09z"/>
    <path class="fil1" d="M82.67 14.11c0,0.99 -0.28,1.79 -0.85,2.38 -0.58,0.59 -1.42,0.89 -2.52,0.89 -0.31,0 -0.59,-0.03 -0.84,-0.08 -0.26,-0.05 -0.49,-0.13 -0.68,-0.25 -0.2,-0.11 -0.35,-0.27 -0.46,-0.46 -0.12,-0.19 -0.17,-0.42 -0.17,-0.7 0,-0.23 0.03,-0.42 0.09,-0.59 0.06,-0.17 0.14,-0.3 0.23,-0.4 0.21,0.04 0.39,0.07 0.54,0.09 0.15,0.01 0.32,0.02 0.5,0.02 0.43,0 0.75,-0.11 0.94,-0.32 0.19,-0.22 0.28,-0.54 0.28,-0.97l0 -6.8c0.14,-0.02 0.33,-0.05 0.59,-0.09 0.26,-0.04 0.52,-0.06 0.77,-0.06 0.56,0 0.97,0.09 1.21,0.28 0.25,0.2 0.37,0.56 0.37,1.11l0 5.95z"/>
    <path id="1" class="fil1" d="M88.08 15.32c0.19,0 0.4,-0.02 0.63,-0.06 0.23,-0.04 0.4,-0.1 0.51,-0.16l0 -1.35 -1.21 0.1c-0.31,0.03 -0.57,0.09 -0.77,0.21 -0.2,0.11 -0.3,0.28 -0.3,0.5 0,0.22 0.08,0.4 0.26,0.55 0.17,0.13 0.46,0.21 0.88,0.21zm-0.14 -6.6c0.61,0 1.16,0.06 1.66,0.18 0.5,0.12 0.92,0.31 1.27,0.56 0.36,0.26 0.63,0.57 0.82,0.96 0.19,0.39 0.28,0.84 0.28,1.37l0 3.76c0,0.29 -0.08,0.53 -0.24,0.71 -0.16,0.19 -0.36,0.35 -0.58,0.48 -0.73,0.44 -1.75,0.66 -3.07,0.66 -0.6,0 -1.13,-0.06 -1.61,-0.17 -0.47,-0.11 -0.88,-0.28 -1.22,-0.5 -0.34,-0.23 -0.61,-0.51 -0.79,-0.86 -0.19,-0.35 -0.28,-0.75 -0.28,-1.21 0,-0.77 0.23,-1.37 0.69,-1.78 0.46,-0.41 1.17,-0.67 2.13,-0.77l2.2 -0.24 0 -0.11c0,-0.33 -0.14,-0.56 -0.43,-0.7 -0.28,-0.14 -0.69,-0.21 -1.23,-0.21 -0.41,0 -0.83,0.04 -1.23,0.13 -0.41,0.09 -0.78,0.2 -1.1,0.34 -0.15,-0.1 -0.27,-0.26 -0.37,-0.46 -0.1,-0.21 -0.15,-0.43 -0.15,-0.65 0,-0.29 0.07,-0.52 0.21,-0.7 0.14,-0.17 0.35,-0.32 0.64,-0.44 0.33,-0.12 0.71,-0.21 1.15,-0.27 0.44,-0.06 0.86,-0.08 1.25,-0.08zm1.14 -4.22c0.59,0 1.02,0.13 1.31,0.37 0.3,0.25 0.44,0.53 0.44,0.84 0,0.26 -0.05,0.47 -0.17,0.65 -0.11,0.17 -0.3,0.37 -0.57,0.59l-1.59 1.31c-0.51,0 -0.88,-0.11 -1.13,-0.35 -0.24,-0.23 -0.37,-0.49 -0.37,-0.75 0,-0.14 0.03,-0.27 0.08,-0.39 0.05,-0.12 0.15,-0.27 0.31,-0.44l1.69 -1.83z"/>
   </g>
   <path class="fil2" d="M12.62 21.1c0.18,0.32 0.4,0.59 0.61,0.8l0.01 -0.01 0.01 0.01c0.21,-0.21 0.43,-0.48 0.61,-0.8 0.94,-1.31 2.24,-2.26 3.23,-3.5 0.4,-0.48 0.81,-1.35 0.82,-3.29 -5.74,0.75 -4.4,0.58 -5.83,-1.37 -0.48,-0.66 -0.76,-0.85 -0.61,-1.79 0.35,-0.22 1.29,-0.56 1.78,-0.79 3.03,-1.45 1.59,-0.7 2.87,-2.26 0.42,-0.51 0.95,-0.68 1.23,-1.07 -0.25,-0.91 -0.29,-2.25 0.09,-3.13 0.53,0.2 1.01,0.67 1.43,1.14 0.47,0.52 0.6,0.78 1.18,1.27 -0.06,-1.08 -0.22,-2.94 0.33,-3.8 0.83,0.48 2.21,2.58 2.72,3.81 0.41,0.97 0.27,1.62 0.77,2.54 0.54,1 0.93,1.94 1.24,2.82l0 0.01c0.12,-0.18 0.24,-0.35 0.35,-0.54 0.33,-0.52 0.58,-1.07 0.75,-1.68 0.05,-0.17 0.09,-0.34 0.12,-0.51 0.1,-0.54 0.15,-1.08 0.15,-1.61 0.02,-2.33 -0.89,-4.27 -2.33,-5.56 -1.42,-1.34 -3.4,-2.05 -5.68,-1.7 -0.62,0.08 -1.24,0.25 -1.86,0.49 -1.13,0.45 -2.06,1.15 -2.74,2.11 -0.24,0.33 -0.35,0.72 -0.63,1.06 -0.28,-0.34 -0.39,-0.73 -0.63,-1.06 -0.68,-0.96 -1.61,-1.66 -2.74,-2.11 -0.62,-0.24 -1.24,-0.41 -1.86,-0.49 -2.28,-0.35 -4.26,0.36 -5.68,1.7 -1.44,1.3 -2.35,3.23 -2.33,5.56 0,0.53 0.05,1.07 0.15,1.61 0.03,0.17 0.07,0.34 0.12,0.51 0.13,0.47 0.32,0.92 0.55,1.34 0.88,-0.26 1.64,-0.65 2.25,-1.17 0.88,-0.75 1.01,-1.37 1.44,-2.28 0.7,-1.44 1.16,-1.45 1.48,-2.26 0.13,-0.35 0.14,-0.34 0.11,-0.75 -0.05,-0.69 0.17,-1.31 0.29,-1.85 0.04,-0.2 0,-0.2 0.15,-0.28 0.35,0.34 0.51,1.41 0.79,1.91 0.49,-0.11 0.49,-0.19 0.61,-0.58 0.1,-0.33 0.16,-0.62 0.37,-0.69 0.29,0.22 0.08,0.83 0.2,1.21 0.79,0.35 1.47,0.2 2.18,0.83 0.36,0.33 0.43,0.54 0.93,0.68 0.38,0.11 0.81,0.19 0.96,0.6 0.11,0.31 -0.01,1.05 -0.09,1.34 -0.31,1.06 -1.14,1.09 -1.93,1.45 -0.39,0.17 -0.64,0.52 -0.73,0.86 -0.11,0.39 -0.14,0.82 -0.23,1.24 -0.09,0.4 -0.21,0.75 -0.31,1.14 -0.56,2.18 -1.28,4.58 0.4,5.92 -0.02,-0.02 -0.04,-0.03 -0.06,-0.05 0.19,0.15 0.37,0.3 0.55,0.45 1.46,1.24 2.02,2 2.44,2.57zm-2.79 -15.05c0.24,0.01 0.49,0.24 0.69,0.18 0.04,-0.24 0.02,-0.33 -0.09,-0.55 -0.09,-0.19 -0.17,-0.29 -0.33,-0.35 -0.22,0.12 -0.27,0.47 -0.27,0.72zm10.14 2.32c-0.2,0.37 -0.32,0.46 -0.7,0.65 -0.33,0.18 -0.53,0.24 -0.82,0.15 -0.13,-0.28 0.82,-1.78 1.52,-0.8z"/>
  </g>
 </g>
</svg>
