<?xml version="1.0" encoding="UTF-8"?>
<!DOCTYPE svg PUBLIC "-//W3C//DTD SVG 1.1//EN" "http://www.w3.org/Graphics/SVG/1.1/DTD/svg11.dtd">
<!-- Creator: CorelDRAW 2019 (64 Bit) -->
<svg xmlns="http://www.w3.org/2000/svg" xml:space="preserve" width="656px" height="156px" version="1.1" style="shape-rendering:geometricPrecision; text-rendering:geometricPrecision; image-rendering:optimizeQuality; fill-rule:evenodd; clip-rule:evenodd"
viewBox="0 0 371.1 88.36"
 xmlns:xlink="http://www.w3.org/1999/xlink"
 xmlns:xodm="http://www.corel.com/coreldraw/odm/2003">
 <defs>
  <style type="text/css">
   <![CDATA[
    .fil1 {fill:#FEFEFE}
    .fil0 {fill:#FEFEFE;fill-rule:nonzero}
   ]]>
  </style>
 </defs>
 <g id="Camada_x0020_1">
  <metadata id="CorelCorpID_0Corel-Layer"/>
  <g id="_2898926428848">
   <path class="fil0" d="M152.53 60.56l-12.27 0c-0.44,1.66 -0.85,3.15 -1.17,4.56 -0.32,1.37 -0.65,2.7 -0.97,3.91 -0.64,0.25 -1.29,0.45 -2.02,0.57 -0.68,0.16 -1.53,0.24 -2.54,0.24 -2.3,0 -3.99,-0.36 -5.08,-1.17 -1.13,-0.81 -1.7,-1.9 -1.7,-3.31 0,-0.6 0.12,-1.25 0.29,-1.89 0.2,-0.61 0.4,-1.38 0.6,-2.22 0.32,-1.21 0.77,-2.75 1.33,-4.56 0.57,-1.86 1.17,-3.8 1.86,-5.89 0.68,-2.1 1.41,-4.28 2.18,-6.46 0.76,-2.18 1.49,-4.28 2.18,-6.21 0.64,-1.98 1.29,-3.76 1.85,-5.29 0.57,-1.57 1.01,-2.74 1.29,-3.55 0.81,-0.48 1.94,-0.89 3.51,-1.29 1.58,-0.4 3.11,-0.61 4.72,-0.61 2.26,0 4.24,0.33 5.98,0.97 1.73,0.65 2.86,1.7 3.35,3.15 0.8,2.3 1.69,5 2.66,8.11 0.93,3.15 1.9,6.34 2.82,9.68 0.97,3.31 1.9,6.58 2.79,9.81 0.93,3.23 1.69,6.09 2.38,8.59 -0.53,0.61 -1.37,1.13 -2.46,1.5 -1.05,0.4 -2.34,0.6 -3.84,0.6 -2.22,0 -3.75,-0.36 -4.6,-1.09 -0.88,-0.72 -1.49,-1.89 -1.89,-3.47l-1.25 -4.68 0 0zm-6.02 -22.55c-0.64,1.85 -1.33,3.91 -2.09,6.17 -0.77,2.26 -1.54,4.68 -2.26,7.26l8.43 0c-0.65,-2.58 -1.29,-5 -1.94,-7.3 -0.64,-2.26 -1.25,-4.32 -1.73,-6.13l-0.41 0 0 0z"/>
   <path id="_1" class="fil0" d="M186.7 35.18c1.94,0 3.59,0.24 5.01,0.73l0 -10.98c0.48,-0.12 1.21,-0.28 2.13,-0.4 0.93,-0.12 1.94,-0.2 2.99,-0.2 2.26,0 3.91,0.36 4.88,1.13 1.01,0.72 1.5,2.18 1.5,4.27l0 32.12c0,2.14 -0.97,3.84 -2.99,5.09 -1.29,0.84 -2.99,1.61 -5.04,2.26 -2.06,0.68 -4.44,1 -7.15,1 -5.89,0 -10.53,-1.45 -13.8,-4.39 -3.3,-2.91 -4.96,-7.27 -4.96,-13.04 0,-2.98 0.45,-5.57 1.37,-7.79 0.89,-2.21 2.14,-4.03 3.68,-5.48 1.57,-1.46 3.38,-2.54 5.52,-3.23 2.14,-0.73 4.4,-1.09 6.86,-1.09l0 0zm5.09 9.73c-0.53,-0.21 -1.05,-0.41 -1.66,-0.53 -0.56,-0.12 -1.17,-0.2 -1.81,-0.2 -2.34,0 -4.16,0.73 -5.45,2.14 -1.29,1.41 -1.94,3.59 -1.94,6.45 0,2.87 0.61,4.97 1.82,6.3 1.21,1.37 2.98,2.06 5.2,2.06 0.85,0 1.58,-0.12 2.26,-0.29 0.69,-0.16 1.21,-0.4 1.58,-0.6l0 -15.33 0 0z"/>
   <path id="_2" class="fil0" d="M244.48 52.65c0,2.71 -0.44,5.13 -1.25,7.31 -0.85,2.18 -2.06,4.03 -3.59,5.52 -1.57,1.5 -3.43,2.67 -5.61,3.47 -2.18,0.85 -4.6,1.26 -7.3,1.26 -2.7,0 -5.17,-0.41 -7.3,-1.21 -2.18,-0.77 -4.04,-1.94 -5.61,-3.43 -1.58,-1.54 -2.75,-3.35 -3.59,-5.53 -0.85,-2.18 -1.26,-4.64 -1.26,-7.39 0,-2.66 0.45,-5.08 1.3,-7.26 0.84,-2.18 2.05,-3.99 3.63,-5.53 1.53,-1.49 3.39,-2.66 5.57,-3.47 2.17,-0.8 4.59,-1.21 7.26,-1.21 2.66,0 5.08,0.41 7.26,1.25 2.14,0.81 4,2.02 5.57,3.51 1.57,1.54 2.78,3.35 3.63,5.53 0.85,2.18 1.29,4.56 1.29,7.18l0 0zm-17.75 -8.47c-1.9,0 -3.39,0.73 -4.4,2.22 -1.05,1.45 -1.57,3.55 -1.57,6.25 0,2.83 0.52,4.97 1.57,6.38 1.01,1.45 2.5,2.14 4.4,2.14 1.9,0 3.35,-0.73 4.4,-2.14 1.05,-1.46 1.57,-3.59 1.57,-6.38 0,-2.7 -0.52,-4.8 -1.57,-6.25 -1.05,-1.49 -2.5,-2.22 -4.4,-2.22z"/>
   <path id="_3" class="fil0" d="M262.64 70.12c-3.99,0 -7.06,-0.88 -9.2,-2.7 -2.14,-1.81 -3.23,-4.76 -3.23,-8.8l0 -30.1c0.53,-0.12 1.21,-0.28 2.14,-0.44 0.93,-0.16 1.94,-0.24 2.95,-0.24 2.22,0 3.83,0.4 4.84,1.17 0.97,0.77 1.49,2.18 1.49,4.28l0 3.63 8.88 0c0.24,0.52 0.52,1.13 0.77,1.85 0.24,0.77 0.36,1.58 0.36,2.51 0,1.57 -0.36,2.7 -1.05,3.43 -0.69,0.68 -1.65,1.04 -2.82,1.04l-6.14 0 0 12.03c0,1.21 0.37,2.02 1.09,2.54 0.77,0.49 1.82,0.73 3.15,0.73 0.69,0 1.37,-0.04 2.1,-0.16 0.72,-0.13 1.37,-0.29 1.89,-0.45 0.41,0.49 0.77,1.05 1.05,1.66 0.33,0.6 0.45,1.33 0.45,2.22 0,1.69 -0.65,3.1 -1.94,4.19 -1.25,1.09 -3.55,1.62 -6.78,1.62l0 -0.01z"/>
   <path id="_4" class="fil0" d="M286.61 57.17c0.64,1.66 1.69,2.79 3.19,3.43 1.49,0.65 3.14,0.97 5,0.97 1.9,0 3.71,-0.2 5.45,-0.69 1.69,-0.48 3.06,-1.04 4.11,-1.65 0.73,0.44 1.33,1.09 1.82,1.9 0.52,0.8 0.77,1.65 0.77,2.54 0,1.13 -0.33,2.14 -0.97,2.94 -0.61,0.81 -1.5,1.5 -2.67,2.02 -1.17,0.53 -2.5,0.93 -4.11,1.17 -1.58,0.28 -3.31,0.41 -5.21,0.41 -2.66,0 -5.12,-0.41 -7.42,-1.13 -2.26,-0.73 -4.24,-1.86 -5.93,-3.35 -1.66,-1.5 -2.95,-3.39 -3.92,-5.61 -0.97,-2.26 -1.41,-4.93 -1.41,-7.95 0,-2.99 0.48,-5.53 1.45,-7.67 0.97,-2.18 2.26,-3.91 3.88,-5.28 1.57,-1.42 3.39,-2.42 5.44,-3.07 2.02,-0.65 4.12,-0.97 6.22,-0.97 2.42,0 4.6,0.37 6.53,1.09 1.98,0.69 3.68,1.7 5.09,2.95 1.41,1.29 2.54,2.78 3.31,4.56 0.76,1.77 1.13,3.67 1.13,5.77 0,1.53 -0.45,2.7 -1.29,3.51 -0.85,0.8 -2.06,1.33 -3.6,1.57l-16.86 2.54 0 0zm5.77 -13.6c-1.74,0 -3.15,0.53 -4.32,1.54 -1.13,1.05 -1.81,2.54 -2.06,4.44l11.5 -1.9c-0.04,-0.48 -0.16,-0.93 -0.4,-1.41 -0.2,-0.49 -0.53,-0.89 -0.93,-1.33 -0.4,-0.41 -0.93,-0.73 -1.57,-0.97 -0.61,-0.24 -1.37,-0.37 -2.22,-0.37z"/>
   <path class="fil0" d="M333.58 56.93c0,3.99 -1.13,7.22 -3.43,9.6 -2.34,2.38 -5.73,3.59 -10.17,3.59 -1.25,0 -2.38,-0.12 -3.39,-0.32 -1.05,-0.2 -1.98,-0.52 -2.75,-1.01 -0.8,-0.44 -1.41,-1.09 -1.85,-1.85 -0.49,-0.77 -0.69,-1.7 -0.69,-2.83 0,-0.93 0.12,-1.69 0.37,-2.38 0.24,-0.68 0.56,-1.21 0.92,-1.61 0.85,0.16 1.58,0.28 2.18,0.36 0.61,0.04 1.29,0.08 2.02,0.08 1.73,0 3.03,-0.44 3.79,-1.29 0.77,-0.89 1.13,-2.18 1.13,-3.91l0 -27.44c0.57,-0.08 1.33,-0.2 2.38,-0.36 1.05,-0.17 2.1,-0.25 3.11,-0.25 2.26,0 3.91,0.37 4.88,1.13 1.01,0.81 1.49,2.26 1.49,4.48l0 24.01 0.01 0z"/>
   <path id="_1_0" class="fil0" d="M355.41 61.81c0.76,0 1.61,-0.08 2.54,-0.24 0.93,-0.16 1.61,-0.4 2.06,-0.65l0 -5.44 -4.89 0.4c-1.25,0.12 -2.3,0.36 -3.1,0.85 -0.81,0.44 -1.21,1.13 -1.21,2.02 0,0.88 0.32,1.61 1.05,2.21 0.68,0.53 1.85,0.85 3.55,0.85l0 0zm-0.57 -26.63c2.46,0 4.68,0.24 6.7,0.73 2.02,0.48 3.71,1.25 5.12,2.26 1.46,1.05 2.55,2.3 3.31,3.87 0.77,1.57 1.13,3.39 1.13,5.53l0 15.17c0,1.17 -0.32,2.14 -0.97,2.87 -0.64,0.76 -1.45,1.41 -2.34,1.93 -2.94,1.78 -7.06,2.67 -12.39,2.67 -2.42,0 -4.55,-0.25 -6.49,-0.69 -1.9,-0.44 -3.55,-1.13 -4.92,-2.02 -1.38,-0.93 -2.47,-2.06 -3.19,-3.47 -0.77,-1.41 -1.13,-3.02 -1.13,-4.88 0,-3.11 0.93,-5.53 2.78,-7.18 1.86,-1.66 4.72,-2.71 8.6,-3.11l8.87 -0.97 0 -0.44c0,-1.33 -0.56,-2.26 -1.73,-2.83 -1.13,-0.56 -2.79,-0.84 -4.96,-0.84 -1.66,0 -3.35,0.16 -4.97,0.52 -1.65,0.36 -3.14,0.81 -4.44,1.37 -0.6,-0.4 -1.09,-1.05 -1.49,-1.85 -0.4,-0.85 -0.6,-1.74 -0.6,-2.63 0,-1.17 0.28,-2.09 0.84,-2.82 0.57,-0.69 1.42,-1.29 2.59,-1.78 1.33,-0.48 2.86,-0.84 4.64,-1.09 1.77,-0.24 3.47,-0.32 5.04,-0.32l0 0zm4.6 -17.03c2.38,0 4.12,0.53 5.29,1.5 1.21,1 1.77,2.14 1.77,3.39 0,1.04 -0.2,1.89 -0.68,2.62 -0.45,0.68 -1.21,1.49 -2.3,2.38l-6.42 5.28c-2.06,0 -3.55,-0.44 -4.56,-1.41 -0.97,-0.93 -1.49,-1.98 -1.49,-3.02 0,-0.57 0.12,-1.09 0.32,-1.58 0.2,-0.48 0.61,-1.09 1.25,-1.77l6.82 -7.39 0 0z"/>
   <path class="fil1" d="M50.93 85.13c0.72,1.3 1.61,2.39 2.46,3.23l0.04 -0.04 0.04 0.04c0.84,-0.84 1.73,-1.93 2.46,-3.23 3.79,-5.28 9.04,-9.11 13.03,-14.12 1.62,-1.94 3.27,-5.45 3.31,-13.27 -23.16,3.02 -17.75,2.34 -23.52,-5.53 -1.94,-2.66 -3.07,-3.43 -2.47,-7.22 1.42,-0.89 5.21,-2.26 7.19,-3.19 12.22,-5.85 6.41,-2.83 11.58,-9.12 1.69,-2.06 3.83,-2.75 4.96,-4.32 -1.01,-3.67 -1.17,-9.08 0.36,-12.63 2.14,0.81 4.08,2.71 5.77,4.6 1.9,2.1 2.42,3.15 4.76,5.13 -0.24,-4.36 -0.88,-11.87 1.34,-15.34 3.35,1.94 8.91,10.41 10.97,15.38 1.66,3.91 1.09,6.53 3.11,10.24 2.18,4.04 3.75,7.83 5,11.38l0 0.04c0.49,-0.72 0.97,-1.41 1.41,-2.18 1.33,-2.09 2.34,-4.31 3.03,-6.77 0.2,-0.69 0.36,-1.38 0.48,-2.06 0.41,-2.18 0.61,-4.36 0.61,-6.5 0.08,-9.4 -3.59,-17.23 -9.4,-22.43 -5.73,-5.41 -13.72,-8.27 -22.92,-6.86 -2.5,0.32 -5,1.01 -7.51,1.98 -4.56,1.81 -8.31,4.64 -11.05,8.51 -0.97,1.33 -1.41,2.9 -2.54,4.28 -1.13,-1.38 -1.58,-2.95 -2.55,-4.28 -2.74,-3.87 -6.49,-6.7 -11.05,-8.51 -2.5,-0.97 -5.01,-1.66 -7.51,-1.98 -9.2,-1.41 -17.19,1.45 -22.92,6.86 -5.81,5.24 -9.48,13.03 -9.4,22.43 0,2.14 0.2,4.32 0.61,6.5 0.12,0.68 0.28,1.37 0.48,2.06 0.53,1.89 1.29,3.71 2.22,5.4 3.55,-1.05 6.62,-2.62 9.08,-4.72 3.55,-3.02 4.07,-5.53 5.81,-9.2 2.82,-5.81 4.68,-5.85 5.97,-9.12 0.53,-1.41 0.57,-1.37 0.44,-3.02 -0.2,-2.79 0.69,-5.29 1.17,-7.47 0.17,-0.8 0,-0.8 0.61,-1.13 1.41,1.37 2.06,5.69 3.19,7.71 1.97,-0.44 1.97,-0.77 2.46,-2.34 0.4,-1.33 0.64,-2.5 1.49,-2.78 1.17,0.88 0.32,3.34 0.81,4.88 3.19,1.41 5.93,0.8 8.8,3.35 1.45,1.33 1.73,2.18 3.75,2.74 1.53,0.44 3.27,0.77 3.87,2.42 0.45,1.25 -0.04,4.24 -0.36,5.41 -1.25,4.28 -4.6,4.4 -7.79,5.85 -1.57,0.69 -2.58,2.1 -2.95,3.47 -0.44,1.57 -0.56,3.31 -0.92,5 -0.37,1.62 -0.85,3.03 -1.25,4.6 -2.26,8.8 -5.17,18.48 1.61,23.89 -0.08,-0.08 -0.16,-0.12 -0.24,-0.2 0.76,0.6 1.49,1.21 2.22,1.81 5.89,5.01 8.15,8.07 9.84,10.37l0.01 0zm-11.26 -60.72c0.97,0.04 1.97,0.97 2.78,0.72 0.16,-0.96 0.08,-1.33 -0.36,-2.22 -0.37,-0.76 -0.69,-1.17 -1.33,-1.41 -0.89,0.49 -1.09,1.9 -1.09,2.91zm40.91 9.36c-0.8,1.49 -1.29,1.86 -2.82,2.62 -1.33,0.73 -2.14,0.97 -3.31,0.61 -0.53,-1.13 3.31,-7.19 6.13,-3.23l0 0z"/>
  </g>
 </g>
</svg>
