<?xml version="1.0" encoding="UTF-8"?>
<!DOCTYPE svg PUBLIC "-//W3C//DTD SVG 1.1//EN" "http://www.w3.org/Graphics/SVG/1.1/DTD/svg11.dtd">
<!-- Creator: CorelDRAW 2019 (64 Bit) -->
<svg xmlns="http://www.w3.org/2000/svg" xml:space="preserve" width="833px" height="713px" version="1.1" style="shape-rendering:geometricPrecision; text-rendering:geometricPrecision; image-rendering:optimizeQuality; fill-rule:evenodd; clip-rule:evenodd"
viewBox="0 0 257.73 220.74"
 xmlns:xlink="http://www.w3.org/1999/xlink"
 xmlns:xodm="http://www.corel.com/coreldraw/odm/2003">
 <defs>
  <style type="text/css">
   <![CDATA[
    .fil5 {fill:#54341C;fill-rule:nonzero}
    .fil2 {fill:#7E99DA;fill-rule:nonzero}
    .fil6 {fill:#8C4B1C;fill-rule:nonzero}
    .fil1 {fill:#93CD5D;fill-rule:nonzero}
    .fil11 {fill:#C3CCC1;fill-rule:nonzero}
    .fil12 {fill:#D1DDDA;fill-rule:nonzero}
    .fil7 {fill:#EF9E97;fill-rule:nonzero}
    .fil3 {fill:#FFA8A5;fill-rule:nonzero}
    .fil10 {fill:#FFAC1F;fill-rule:nonzero}
    .fil9 {fill:#FFD100;fill-rule:nonzero}
    .fil0 {fill:#FFD4BC;fill-rule:nonzero}
    .fil13 {fill:white;fill-rule:nonzero}
    .fil8 {fill:#FFA8A5;fill-rule:nonzero;fill-opacity:0.400000}
    .fil4 {fill:#FFA8A5;fill-rule:nonzero;fill-opacity:0.600000}
   ]]>
  </style>
 </defs>
 <g id="Camada_x0020_1">
  <metadata id="CorelCorpID_0Corel-Layer"/>
  <g id="_2284713623904">
   <g>
    <path class="fil0" d="M11.54 203.84c-0.93,2.8 -10.89,5.6 -11.52,8.4 -0.62,2.8 11.52,4.67 19.61,0.62 0,0 4.67,3.74 7.16,2.49 2.49,-1.24 -1.87,-4.35 -1.25,-8.4l-14 -3.11z"/>
    <polygon class="fil1" points="58.12,118.06 26.54,208.98 10.23,204.3 37.78,112.22 "/>
    <path class="fil0" d="M149.93 90.34c0,5.62 -4.55,10.17 -10.16,10.17 -5.62,0 -10.17,-4.55 -10.17,-10.17 0,-5.61 4.55,-10.16 10.17,-10.16 5.61,0 10.16,4.55 10.16,10.16z"/>
    <path class="fil1" d="M86.31 94.6c0,0 0.1,0 0.28,0.01 0.14,0 0.3,0.01 0.48,0.02 0.34,0.02 0.73,0.05 1.14,0.11 0.99,0.14 1.33,0.25 2.02,0.44 1.17,0.35 2.44,0.9 3.43,1.49 1.03,0.61 1.95,1.28 2.79,1.97 1.66,1.37 3.06,2.85 4.45,4.43 1.39,1.57 2.74,3.25 4.15,5 2.81,3.48 5.84,7.33 9.15,10.6 1.65,1.62 3.36,3.08 4.96,4.09 1.61,1.05 3,1.55 4.04,1.69 0.27,0.02 0.52,0.06 0.78,0.04 0.12,0.01 0.25,-0.01 0.38,-0.02 0.07,0.01 0.13,-0.02 0.2,-0.02l0.1 0.09 0.05 0.11 0.01 0c0.26,0 -0.33,-0.03 -0.25,-0.05l0.06 -0.07 0.54 -0.15c0.14,-0.04 0.02,-0.03 0.04,-0.03l-0.05 0.01c-0.06,0.03 -0.02,0.01 0.03,0 0.04,-0.02 0.09,-0.02 0.13,-0.05 0.18,-0.05 0.38,-0.15 0.6,-0.27 0.44,-0.24 0.93,-0.63 1.39,-1.11 0.24,-0.24 0.46,-0.5 0.66,-0.78l0.08 -0.11 0.04 -0.05c0.02,-0.03 -0.15,0.24 -0.07,0.11l0.02 -0.02 0.03 -0.06 0.29 -0.44c0.12,-0.19 0.12,-0.16 0.25,-0.4 0.83,-1.4 1.51,-3.23 2.04,-5.25 0.13,-0.48 0.27,-1.07 0.36,-1.49 0.12,-0.55 0.24,-1.1 0.35,-1.63 0.19,-0.96 0.37,-2 0.51,-2.94 0.56,-3.82 0.63,-7.07 0.59,-9.33 -0.04,-2.26 -0.16,-3.55 -0.16,-3.55l16.87 -1.76c0,0 0.05,0.42 0.14,1.2 0.08,0.78 0.19,1.92 0.29,3.39 0.18,2.92 0.27,7.12 -0.23,12.14 -0.12,1.27 -0.27,2.53 -0.49,3.94 -0.11,0.64 -0.22,1.29 -0.33,1.96 -0.14,0.8 -0.26,1.43 -0.43,2.19 -0.64,2.94 -1.57,6.29 -3.37,9.8 -0.19,0.39 -0.55,1.01 -0.79,1.43l-0.27 0.45 -0.48 0.76c-0.59,0.89 -1.23,1.76 -1.94,2.59 -1.42,1.68 -3.1,3.25 -5.11,4.61 -1.01,0.67 -2.08,1.3 -3.25,1.83 -0.29,0.13 -0.59,0.25 -0.89,0.38 -0.3,0.12 -0.59,0.24 -1.01,0.37l-1.07 0.34 -0.53 0.15 -0.45 0.12 -0.22 0.04 -0.44 0.1c-0.3,0.06 -0.59,0.13 -0.9,0.17 -0.6,0.1 -1.2,0.19 -1.82,0.24 -1.22,0.12 -2.45,0.13 -3.66,0.06 -4.9,-0.29 -9.19,-2.01 -12.58,-3.96 -3.44,-1.97 -6.18,-4.19 -8.6,-6.36 -4.8,-4.36 -8.35,-8.59 -11.29,-11.9 -1.45,-1.65 -2.73,-3.09 -3.79,-4.18 -1.04,-1.1 -1.89,-1.84 -2.26,-2.1 -0.17,-0.12 -0.2,-0.11 -0.05,-0.01 0.12,0.08 0.58,0.33 1.09,0.47 0.36,0.11 0.4,0.13 1.13,0.24 0.28,0.04 0.54,0.22 0.78,0.22l0.17 0.16c0.07,0 0.11,0 0.08,0l-0.07 0c-0.18,0 -0.28,-0.15 -0.28,-0.15l0.16 -21.32z"/>
    <path class="fil2" d="M126.02 61.45c-3.71,-2.07 -8.09,-3.06 -11.23,-5.93 -4.3,-3.91 -5.19,-10.21 -7.63,-15.47 -1.96,-4.22 -5.13,-7.99 -9.3,-10.06 -4.16,-2.08 -9.36,-2.28 -13.4,0.02 -3.92,2.23 -6.35,6.48 -7.39,10.87 -1.03,4.39 -0.85,8.96 -0.65,13.46l13.29 32.54c3.56,1.81 7.19,3.65 11.12,4.36 3.93,0.72 8.29,0.17 11.36,-2.39 3.08,-2.55 4.49,-6.72 7.64,-9.18 3.8,-2.97 9.97,-3.42 11.69,-7.93 1.52,-3.97 -1.79,-8.22 -5.5,-10.29z"/>
    <g>
     <path class="fil3" d="M78.05 157.07c8.15,8.11 4.01,26.81 -3.67,26.58 -7.68,-0.22 -19.42,-13.3 -26.48,-6.67 -7.06,6.63 -8.54,27.16 -3.37,28.18 5.17,1.03 11.18,-13.04 11.18,-13.04 0,0 18.25,14.19 31.65,2.39 13.4,-11.8 12.53,-28.9 6.19,-43.32l-15.5 5.88z"/>
     <path class="fil4" d="M82.49 169.48c5.12,0.94 10.54,1.35 15.44,-0.56 -0.27,-6 -1.89,-12.07 -4.38,-17.73l-15.5 5.88c3.14,3.13 4.45,7.83 4.44,12.41z"/>
     <path class="fil5" d="M50.59 192.35c-2.66,-5.78 1.63,-11.83 6.41,-16.36 -3.37,-1.22 -6.54,-1.42 -9.1,0.99 -7.06,6.63 -8.54,27.16 -3.37,28.18 3.91,0.78 8.31,-7.09 10.21,-10.97 -1.52,0.58 -3.45,-0.31 -4.15,-1.84z"/>
    </g>
    <g>
     <path class="fil0" d="M68.49 195.12c-4.89,-0.14 -12.97,-4.37 -19.15,-6.33 -7.77,2.76 -13.15,13.87 -8.7,18.32 2.96,2.95 5.62,1.49 6.27,0.18 0.51,-1.03 0.87,-1.81 1.02,-2.15 0.21,0.39 1.87,1.6 10.48,5.29 12.35,5.3 25.18,10.85 43.99,7.86 0,0 -26.23,-22.94 -33.91,-23.17z"/>
     <path class="fil6" d="M42.89 205.17c-2.65,-5.77 1.64,-11.83 6.42,-16.35 -3.37,-1.23 -6.55,-1.42 -9.11,0.98 -7.06,6.63 -8.54,27.16 -3.37,28.19 3.92,0.78 8.31,-7.1 10.21,-10.97 -1.52,0.57 -3.45,-0.31 -4.15,-1.85z"/>
    </g>
    <g>
     <path class="fil1" d="M46.8 110.94l26.84 -24.7 23.41 16.03c0,0 -9.62,14.22 3.64,47.04 13.25,32.81 27.36,34.35 23.09,54.44 -3.3,15.48 -21.81,20.53 -36.77,14.54 -17.11,-9.83 -8.56,-18.5 -29.72,-26.59 -26.77,-44.5 -10.49,-80.76 -10.49,-80.76z"/>
    </g>
    <g>
     <path class="fil2" d="M58.46 85.36c-2.69,-4.21 -7.63,-6.36 -12.39,-7.89 -7.56,-2.43 -15.42,-3.91 -23.35,-4.37l-10.57 7.58c1.23,6.74 -0.4,13.97 -4.41,19.53 -1.6,2.23 -3.57,4.21 -4.82,6.65 -1.24,2.44 -1.63,5.59 -0.01,7.81 2.36,3.26 7.31,2.74 11.18,1.61 3.86,-1.13 8.41,-2.43 11.6,0.02 1.69,1.31 2.82,3.59 4.93,3.95 2.63,0.43 4.53,-2.35 6.81,-3.73 3.85,-2.31 8.97,-0.51 13.17,-2.08 4.29,-1.6 6.56,-6.23 8.03,-10.57 2.07,-6.05 3.28,-13.13 -0.17,-18.51z"/>
     <path class="fil7" d="M58.29 96.29l-0.16 3.88c-0.21,5 4.14,9.14 9.38,9.36l0.17 0.01c5.24,0.22 9.8,-3.55 10.01,-8.55l0.23 -5.36c-6.54,-0.55 -13.11,0.04 -19.63,0.66z"/>
     <g>
      <path class="fil0" d="M21.17 85.63c8.95,22.74 30.55,23.16 53.45,14.15 22.9,-9.02 38.43,-24.04 29.48,-46.79 -8.95,-22.74 -18.67,-44.12 -59.01,-28.25 -40.34,15.88 -32.88,38.14 -23.92,60.89z"/>
     </g>
     <path class="fil8" d="M79.31 68.85c1.95,4.89 7.66,7.21 12.75,5.18 5.09,-2.04 7.64,-7.65 5.68,-12.54 -1.95,-4.9 -7.66,-7.22 -12.75,-5.18 -5.09,2.03 -7.63,7.64 -5.68,12.54z"/>
     <path class="fil8" d="M55.7 78.27c1.95,4.9 -0.59,10.51 -5.68,12.54 -5.09,2.03 -10.8,-0.29 -12.75,-5.18 -1.96,-4.89 0.59,-10.51 5.67,-12.54 5.09,-2.03 10.8,0.29 12.76,5.18z"/>
     <path class="fil2" d="M14.94 72.18c0,0 -3.8,-0.17 -5.87,0.89 -2.35,-6.89 -8.55,-27.24 -4.34,-39.64 4.06,-11.97 16.43,-22.84 33.57,-28.76 7.71,-2.67 16.38,-4.34 25.7,-4.65 30.03,-1.02 43.39,39.41 43.39,39.41 3.03,8.16 1.54,16.8 -0.39,13.41 0,0 -1.11,1.98 -5.74,-4.72 -3.55,-5.13 -10.23,-8.45 -15.7,-5.45 -3.82,2.08 -6.71,6.45 -11.06,6.45 -4.16,-0.01 -7.26,-4.17 -11.37,-4.85 -5.04,-0.84 -9.25,3.62 -14.01,5.47 -4.06,1.58 -8.85,1.17 -12.58,-1.09 -3.73,-2.26 -6.31,-6.3 -6.8,-10.64 0,0 3.05,19.39 -14.8,34.17z"/>
     <g>
      <g>
       <path class="fil0" d="M23.71 76.85c1.9,4.83 -0.47,10.29 -5.3,12.19 -4.83,1.9 -10.29,-0.48 -12.19,-5.31 -1.9,-4.82 0.47,-10.28 5.3,-12.18 4.83,-1.9 10.29,0.47 12.19,5.3z"/>
      </g>
     </g>
     <path class="fil8" d="M11.34 77.19c-0.76,0.79 -1.13,1.63 -1.21,2.44 1.55,-1.52 3.35,-1.54 4.81,-0.74 -0.12,0.08 -0.23,0.17 -0.33,0.27 -1.05,1.09 -1.02,2.83 0.08,3.88 0.81,0.78 1.99,0.96 2.97,0.55 0,0.03 0,0.07 0,0.1 0.29,-0.18 0.75,-0.25 1.02,-0.5 0.02,-0.03 0.25,0.11 0.28,0.08 0,-0.01 0.01,-0.02 0.01,-0.02 0.01,-0.02 -0.17,-0.17 -0.16,-0.18 4.13,-4.3 -3.37,-10.13 -7.47,-5.88z"/>
     <path class="fil5" d="M82.33 56.34c0.84,1.75 2.95,2.49 4.7,1.65 1.76,-0.85 2.5,-2.95 1.65,-4.71 -0.84,-1.75 -2.95,-2.49 -4.71,-1.65 -1.75,0.85 -2.49,2.95 -1.64,4.71z"/>
     <path class="fil5" d="M39.92 71.75c0.85,1.76 2.96,2.5 4.71,1.65 1.76,-0.84 2.5,-2.95 1.65,-4.7 -0.84,-1.76 -2.95,-2.5 -4.71,-1.65 -1.75,0.84 -2.49,2.95 -1.65,4.7z"/>
     <g>
      <path class="fil3" d="M71.96 86.66c-4.12,1.45 -8.59,1.3 -12.62,-0.43 -0.31,-0.13 -0.45,-0.49 -0.32,-0.8 0.14,-0.31 0.49,-0.45 0.8,-0.32 3.88,1.67 8.18,1.77 12.13,0.27 3.94,-1.5 7.1,-4.43 8.89,-8.26 0.14,-0.3 0.51,-0.43 0.81,-0.29 0.3,0.15 0.43,0.51 0.29,0.81 -1.93,4.11 -5.32,7.26 -9.56,8.87 -0.14,0.05 -0.28,0.1 -0.42,0.15z"/>
     </g>
    </g>
    <g>
     <path class="fil9" d="M145.57 78.31c0,7.79 -6.31,14.11 -14.1,14.11 -7.8,0 -14.11,-6.32 -14.11,-14.11 0,-7.79 6.31,-14.11 14.11,-14.11 7.79,0 14.1,6.32 14.1,14.11z"/>
     <path class="fil10" d="M132.01 64.23c-0.18,-0.01 -0.36,-0.03 -0.54,-0.03 -5.35,0 -10,2.98 -12.4,7.36 0.92,0.18 1.83,0.49 2.69,0.94 7.54,3.86 9.78,12.18 8.25,19.84 0.48,0.05 0.96,0.08 1.46,0.08 6.87,0 12.59,-4.92 13.84,-11.42 -7.27,-2.61 -13.32,-8.9 -13.3,-16.77z"/>
    </g>
   </g>
   <g>
    <path class="fil11" d="M144.78 118.07c6.71,3.33 18.07,9.36 24.81,22.07 1.8,-1.21 3.79,-2.13 5.82,-2.96 2.81,-1.89 5.6,-3.82 8.46,-5.64 -2.4,-2.95 -4.87,-5.59 -7.37,-7.83 -8.79,-7.88 -18.42,-13.09 -29.2,-15.34 -5.82,-1.21 -9.47,6.26 -2.52,9.7z"/>
    <path class="fil12" d="M139.59 129.21c7.26,1.86 19.62,5.39 28.86,16.41 1.51,-1.55 3.26,-2.87 5.08,-4.1 2.35,-2.44 4.68,-4.9 7.1,-7.27 -2.96,-2.39 -5.93,-4.46 -8.84,-6.13 -10.23,-5.88 -20.74,-8.97 -31.76,-8.93 -5.93,0.03 -7.96,8.09 -0.44,10.02z"/>
    <path class="fil11" d="M209.75 213.51c0.03,-7.5 0.45,-20.34 8.9,-31.99 -1.87,-1.09 -3.58,-2.47 -5.21,-3.92 -2.94,-1.7 -5.9,-3.35 -8.78,-5.12 -1.6,3.44 -2.88,6.83 -3.8,10.06 -3.21,11.35 -3.66,22.3 -0.93,32.97 1.46,5.75 9.78,5.75 9.82,-2z"/>
    <path class="fil12" d="M205.81 132.09l-0.61 1.52c-2.44,6.04 -1.3,12.94 2.96,17.87l14.33 16.58c2.55,2.96 3.96,6.75 3.95,10.67 -0.02,5.91 -3.25,11.36 -8.44,14.2 -6.48,3.55 -14.56,2.05 -19.33,-3.58 0,0 -21.56,-12.9 -30.58,-44.33 -9.03,-31.44 13.87,-18.65 13.87,-18.65l23.85 5.72z"/>
    <path class="fil11" d="M185.38 142.23c6.03,1.79 12.43,2.79 18.69,-0.05 -0.35,-2.86 0.01,-5.8 1.13,-8.57l0.61 -1.52 -23.85 -5.72c0,0 -10.4,-5.79 -14.41,0.05 2.35,7.41 10.58,13.66 17.83,15.81z"/>
    <path class="fil12" d="M222.03 213.27c-1.53,-7.34 -3.79,-19.99 2.06,-33.14 -2.06,-0.67 -4.02,-1.66 -5.92,-2.75 -3.23,-1.05 -6.46,-2.05 -9.66,-3.18 -0.85,3.7 -1.39,7.28 -1.61,10.63 -0.78,11.77 1.05,22.57 5.94,32.44 2.63,5.33 10.76,3.6 9.19,-4z"/>
    <path class="fil12" d="M219.79 168.34c0,0 0.09,0.01 0.27,0.02 0.09,0.01 0.21,0.02 0.34,0.03 0.13,0.01 0.35,0.03 0.24,0.01 -0.03,0 -0.07,0 -0.1,0.02 -0.04,0.01 0.08,-0.01 0.13,0 0.13,-0.01 0.3,-0.03 0.51,-0.09 0.43,-0.09 1.07,-0.4 1.79,-0.98 0.35,-0.31 0.72,-0.68 1.05,-1.11 0.17,-0.22 0.32,-0.45 0.47,-0.69l0.2 -0.37 0.03 -0.04 0.01 -0.01c-0.13,0.31 -0.03,0.07 -0.06,0.14l0.02 -0.05 0.08 -0.2 0.17 -0.38 0.08 -0.19 0.03 -0.09 0.07 -0.17c0.04,-0.08 0.11,-0.32 0.16,-0.49 0.12,-0.36 0.22,-0.76 0.31,-1.17 0.18,-0.84 0.3,-1.77 0.35,-2.8 0.1,-2.06 -0.09,-4.42 -0.44,-7.12 -0.34,-2.69 -0.84,-5.71 -1.04,-9.07 -0.09,-1.67 -0.1,-3.44 0.06,-5.25 0.15,-1.84 0.51,-3.75 1.08,-5.56 1.12,-3.62 3.29,-7.37 6.78,-9.9l0.33 -0.24 0.08 -0.06 0.32 -0.21 0.12 -0.07 0.48 -0.28c0.18,-0.1 0.28,-0.17 0.52,-0.29l0.86 -0.41 0.88 -0.38c0.27,-0.1 0.51,-0.17 0.77,-0.25 0.51,-0.15 1.01,-0.32 1.53,-0.4 2.04,-0.41 4.06,-0.43 5.95,-0.1 3.78,0.65 7.2,2.41 9.66,5.11 0.63,0.64 1.15,1.4 1.64,2.14 0.22,0.39 0.44,0.78 0.66,1.17l0.04 0.07 0.14 0.29 0.04 0.11 0.09 0.21 0.17 0.42c0.07,0.17 0.11,0.24 0.19,0.47l0.22 0.69c0.12,0.44 0.3,0.96 0.35,1.33 0.15,0.8 0.27,1.58 0.29,2.35 0.17,3.06 -0.6,5.72 -1.59,7.87 -1,2.15 -2.32,3.8 -3.58,4.99 -0.61,0.61 -1.27,1.06 -1.8,1.47 -0.59,0.36 -1.07,0.68 -1.49,0.9 -0.86,0.4 -1.32,0.61 -1.32,0.61 -1.79,0.84 -3.91,0.07 -4.75,-1.72 -0.77,-1.65 -0.17,-3.58 1.33,-4.53l0.58 -0.37c0,0 0.21,-0.13 0.62,-0.35 0.2,-0.11 0.42,-0.31 0.7,-0.49 0.24,-0.25 0.57,-0.46 0.86,-0.83 0.6,-0.65 1.26,-1.6 1.72,-2.81 0.44,-1.2 0.75,-2.69 0.54,-4.14 -0.03,-0.37 -0.13,-0.72 -0.21,-1.07 -0.04,-0.21 -0.11,-0.25 -0.14,-0.38l-0.05 -0.17c-0.01,-0.06 -0.11,-0.25 -0.17,-0.37l-0.2 -0.41 -0.1 -0.21 -0.05 -0.1 -0.01 -0.03c0.21,0.45 0.05,0.12 0.1,0.21l-0.02 -0.02c-0.11,-0.15 -0.21,-0.29 -0.31,-0.44 -0.24,-0.28 -0.44,-0.59 -0.75,-0.83 -1.1,-1.08 -2.86,-1.83 -4.65,-2 -0.9,-0.09 -1.8,0.02 -2.59,0.24 -0.2,0.04 -0.38,0.13 -0.57,0.2 -0.08,0.04 -0.2,0.07 -0.26,0.11 -0.04,0.03 -0.09,0.06 -0.13,0.08 -0.04,0.02 -0.09,0.04 -0.14,0.05 -0.09,0.05 -0.29,0.19 -0.43,0.28l-0.46 0.31 -0.11 0.08c0.1,-0.07 -0.28,0.18 0.23,-0.16l-0.02 0.02 -0.03 0.02 -0.11 0.11c-1.27,1.07 -2.24,2.83 -2.74,4.97 -0.25,1.08 -0.38,2.16 -0.4,3.32 -0.02,1.18 0.06,2.41 0.22,3.69 0.32,2.55 0.94,5.27 1.5,8.14 0.57,2.87 1.07,5.95 1.14,9.06 0.03,1.56 -0.04,3.15 -0.26,4.71 -0.1,0.79 -0.25,1.57 -0.43,2.34 -0.1,0.4 -0.16,0.73 -0.31,1.19l-0.2 0.64 -0.17 0.53 -0.14 0.4 -0.07 0.2 -0.11 0.27 -0.06 0.14c-0.17,0.38 -0.33,0.75 -0.49,1.12 -0.36,0.71 -0.73,1.4 -1.14,2.03 -0.82,1.28 -1.73,2.39 -2.69,3.37 -1.95,1.94 -4.11,3.31 -6.16,4.1 -1.02,0.4 -2,0.67 -2.87,0.84 -0.46,0.08 -0.81,0.15 -1.27,0.19 -0.47,0.04 -0.91,0.07 -1.29,0.08 -0.46,0.01 -0.55,0 -0.69,0 -0.14,0 -0.25,0 -0.34,0 -0.18,-0.01 -0.28,-0.01 -0.28,-0.01 -3.76,-0.06 -6.76,-3.16 -6.69,-6.92 0.06,-3.77 3.16,-6.76 6.92,-6.7 0.15,0 0.31,0.01 0.46,0.02z"/>
    <g>
     <path class="fil12" d="M217.06 92.69c5.17,-3.28 15.5,-2.56 24.72,6.8 0,0 -3.74,21.89 -21.72,17.9l-3 -24.7z"/>
     <path class="fil3" d="M220.63 96.46c0,0 5.97,-3.43 15.14,4.48 0,0 -3.38,11.83 -13.14,10.8 0,0 0.32,-9.02 -2,-15.28z"/>
     <path class="fil12" d="M196.99 78.51c1.38,-5.96 -2.76,-15.46 -14.65,-21.02 0,0 -19.4,10.83 -9.63,26.45l24.28 -5.43z"/>
     <path class="fil3" d="M192.26 76.41c0,0 1.23,-6.77 -9.28,-12.78 0,0 -10.03,7.14 -5.8,16 0,0 8.39,-3.32 15.08,-3.22z"/>
     <path class="fil12" d="M188.3 139.04l-12.53 -8.79 -12.52 -8.79c-8.12,-5.7 -10.11,-17.01 -4.4,-25.13l4.82 -6.93c10.54,-15.01 31.44,-18.67 46.45,-8.13 15.02,10.53 18.68,31.44 8.14,46.45l-4.83 6.92c-5.7,8.13 -17.01,10.11 -25.13,4.4z"/>
     <path class="fil5" d="M171.43 95.26c0.33,-1.55 1.85,-2.53 3.39,-2.2 1.54,0.33 2.52,1.84 2.19,3.38 -0.33,1.54 -1.84,2.53 -3.38,2.2 -1.54,-0.33 -2.53,-1.84 -2.2,-3.38z"/>
     <path class="fil5" d="M194.9 110.99c0.33,-1.54 1.85,-2.52 3.39,-2.19 1.54,0.33 2.52,1.84 2.19,3.38 -0.33,1.54 -1.84,2.52 -3.38,2.2 -1.54,-0.33 -2.53,-1.85 -2.2,-3.39z"/>
     <path class="fil13" d="M174.15 104.42c3.3,2.33 4.8,6.24 4.22,9.98 3.33,-1.79 7.53,-1.68 10.82,0.65 4.64,3.28 5.75,9.7 2.47,14.34 -3.28,4.64 -9.7,5.74 -14.34,2.46 -3.3,-2.32 -4.8,-6.24 -4.23,-9.98 -3.32,1.8 -7.52,1.69 -10.81,-0.64 -4.64,-3.28 -5.75,-9.7 -2.47,-14.34 3.28,-4.65 9.7,-5.75 14.34,-2.47z"/>
     <path class="fil3" d="M182.57 108.77l0 -0.01c0,0 0.49,0.35 0.52,0.37 0.03,0.01 -0.52,-0.37 0.52,0.35l0 0.01c1,0.79 3.02,4.46 -0.26,5.97 -6.03,2.78 -6.85,-1.32 -6.93,-4.87 -0.07,-3.48 4.05,-3.21 6.15,-1.82z"/>
     <path class="fil11" d="M192.71 93.29c9.53,0.07 20.23,-7.37 21.7,-8.43 -1.31,-1.29 -2.73,-2.5 -4.29,-3.59 -5.45,-3.83 -11.69,-5.78 -17.92,-5.99 -0.89,4.91 -1.59,12.22 0.51,18.01z"/>
     <path class="fil11" d="M218.76 126.96c0.28,0.21 -4.96,7.01 -4.96,7.01 0,0 -6.2,-2.46 -8.32,-10.67 0,0 6.51,-1.32 13.28,3.66z"/>
    </g>
   </g>
  </g>
 </g>
</svg>
